<?xml version="1.0" encoding="UTF-8" standalone="no"?>
<svg
   xmlns:dc="http://purl.org/dc/elements/1.1/"
   xmlns:cc="http://creativecommons.org/ns#"
   xmlns:rdf="http://www.w3.org/1999/02/22-rdf-syntax-ns#"
   xmlns:svg="http://www.w3.org/2000/svg"
   xmlns="http://www.w3.org/2000/svg"
   height="52.212364"
   width="381.13101"
   viewBox="0 0 381.13101 52.212365"
   version="1.1"
   id="svg8">
  <defs
     id="defs2">
    <clipPath
       id="clipPath893"
       clipPathUnits="userSpaceOnUse">
      <g
         style="fill:#fefffd;fill-opacity:0.482353"
         id="use895">
        <g
           style="fill:#fefffd;fill-opacity:0.482353"
           id="g1191">
          <text
             xml:space="preserve"
             style="font-size:20.0595px;line-height:1.25;font-family:'Paihuen Mapuche';-inkscape-font-specification:'Paihuen Mapuche';letter-spacing:0px;word-spacing:0px;fill:#fefffd;fill-opacity:0.482353;stroke-width:0.501489"
             x="30.00333"
             y="-90.275146"
             id="text1189"><tspan
               id="tspan1187"
               style="font-style:normal;font-variant:normal;font-weight:normal;font-stretch:normal;font-size:48.1431px;font-family:Sawasdee;-inkscape-font-specification:Sawasdee;fill:#fefffd;fill-opacity:0.482353;stroke-width:0.501489"
               x="30.00333"
               y="-90.275146">TRANSLUCI</tspan></text>
        </g>
      </g>
    </clipPath>
  </defs>
  <metadata
     id="metadata5">
    <rdf:RDF>
      <cc:Work
         rdf:about="">
        <dc:format>image/svg+xml</dc:format>
        <dc:type
           rdf:resource="http://purl.org/dc/dcmitype/StillImage" />
      </cc:Work>
    </rdf:RDF>
  </metadata>
  <g
     transform="translate(-36.012256,130.94107)"
     style="display:inline;opacity:1"
     id="layer6" />
  <g
     transform="translate(-36.012256,130.94107)"
     style="display:inline"
     id="layer5" />
  <g
     transform="translate(-36.012256,130.94107)"
     style="display:inline"
     id="layer4">
    <g
       transform="matrix(1.5997763,0,0,1.5997763,-115.15161,161.60391)"
       aria-label="TRANSLUCI"
       id="text848-2-3"
       style="font-size:19.4051px;line-height:1.25;font-family:'Paihuen Mapuche';-inkscape-font-specification:'Paihuen Mapuche';letter-spacing:0px;word-spacing:0px;display:inline;fill:#ffcc00;fill-opacity:0.597319;stroke-width:0.485;stroke-miterlimit:7.9;stroke-dasharray:none">
      <g
         style="font-size:40px;line-height:1.25;font-family:LKLUG;-inkscape-font-specification:LKLUG;letter-spacing:0px;word-spacing:0px"
         id="text855"
         aria-label="NOCTILUCA">
        <path
           id="path857"
           style="font-style:normal;font-variant:normal;font-weight:normal;font-stretch:normal;font-family:Sawasdee;-inkscape-font-specification:Sawasdee"
           d="m 98.200569,-151.95769 v -29.51172 l 24.531251,25.56641 v -25.21484 h 1.73828 v 29.49218 L 99.958382,-177.153 v 25.19531 z" />
        <path
           id="path859"
           style="font-style:normal;font-variant:normal;font-weight:normal;font-stretch:normal;font-family:Sawasdee;-inkscape-font-specification:Sawasdee"
           d="m 139.17713,-180.19987 q 2.73438,-1.17188 5.74219,-1.17188 3.00781,0 5.74219,1.17188 2.7539,1.17187 4.72656,3.16406 1.99219,1.99219 3.16406,4.74609 1.17188,2.75391 1.17188,5.78125 0,3.02735 -1.17188,5.78125 -1.17187,2.73438 -3.16406,4.72656 -1.97266,1.99219 -4.72656,3.16407 -2.73438,1.17187 -5.74219,1.17187 -3.00781,0 -5.74219,-1.17187 -2.73437,-1.17188 -4.70703,-3.16407 -1.97266,-1.99218 -3.14453,-4.72656 -1.17188,-2.7539 -1.17188,-5.78125 0,-3.02734 1.17188,-5.78125 1.17187,-2.7539 3.14453,-4.74609 1.97266,-1.99219 4.70703,-3.16406 z m -7.28515,13.6914 q 0,2.65625 1.01562,5.07813 1.03516,2.42187 2.77344,4.17968 1.73828,1.75782 4.16015,2.8125 2.42188,1.03516 5.07813,1.03516 2.67578,0 5.09766,-1.03516 2.42187,-1.05468 4.16015,-2.8125 1.73828,-1.75781 2.77344,-4.17968 1.03516,-2.42188 1.03516,-5.07813 0,-3.57422 -1.73829,-6.58203 -1.73828,-3.02734 -4.76562,-4.78516 -3.00781,-1.75781 -6.5625,-1.75781 -3.55469,0 -6.5625,1.75781 -2.98828,1.75782 -4.72656,4.78516 -1.73828,3.00781 -1.73828,6.58203 z" />
        <path
           id="path861"
           style="font-style:normal;font-variant:normal;font-weight:normal;font-stretch:normal;font-family:Sawasdee;-inkscape-font-specification:Sawasdee"
           d="m 189.7826,-158.7155 1.40625,0.95703 q -2.03125,2.79297 -5.15625,4.41406 -3.125,1.60157 -6.73828,1.60157 -3.00781,0 -5.74219,-1.17188 -2.73437,-1.17187 -4.70703,-3.16406 -1.97266,-1.99219 -3.14453,-4.74609 -1.17188,-2.75391 -1.17188,-5.78125 0,-3.02735 1.17188,-5.78125 1.17187,-2.75391 3.14453,-4.7461 1.97266,-1.99219 4.70703,-3.16406 2.73438,-1.17188 5.74219,-1.17188 3.59375,0 6.71875,1.64063 3.125,1.62109 5.17578,4.43359 l -1.40625,1.03516 q -1.81641,-2.44141 -4.57031,-3.84766 -2.73438,-1.42578 -5.91797,-1.42578 -3.55469,0 -6.5625,1.75781 -2.98828,1.75782 -4.72656,4.78516 -1.73828,3.00781 -1.73828,6.58203 0,2.65625 1.01562,5.07813 1.03516,2.42187 2.77344,4.17968 1.73828,1.75782 4.16015,2.8125 2.42188,1.03516 5.07813,1.03516 3.18359,0 5.91797,-1.42578 2.7539,-1.42578 4.57031,-3.88672 z" />
        <path
           id="path863"
           style="font-style:normal;font-variant:normal;font-weight:normal;font-stretch:normal;font-family:Sawasdee;-inkscape-font-specification:Sawasdee"
           d="m 212.98573,-181.11784 v 1.75781 h -7.5586 v 27.40234 h -1.75781 v -27.40234 h -7.57813 v -1.75781 z" />
        <path
           id="path865"
           style="font-style:normal;font-variant:normal;font-weight:normal;font-stretch:normal;font-family:Sawasdee;-inkscape-font-specification:Sawasdee"
           d="m 219.17713,-151.95769 h -1.75781 v -29.16015 h 1.75781 z" />
        <path
           id="path867"
           style="font-style:normal;font-variant:normal;font-weight:normal;font-stretch:normal;font-family:Sawasdee;-inkscape-font-specification:Sawasdee"
           d="m 242.65369,-151.95769 h -16.95312 v -29.16015 h 1.75781 v 27.40234 h 15.19531 z" />
        <path
           id="path869"
           style="font-style:normal;font-variant:normal;font-weight:normal;font-stretch:normal;font-family:Sawasdee;-inkscape-font-specification:Sawasdee"
           d="m 247.10682,-181.11784 h 1.75781 v 18.10547 q 0,2.63671 1.19141,4.86328 1.1914,2.22656 3.16406,3.49609 1.99219,1.25 4.29688,1.25 2.30468,0 4.25781,-1.25 1.97265,-1.26953 3.125,-3.47656 1.17187,-2.22656 1.17187,-4.88281 v -18.10547 h 1.75782 v 18.10547 q 0,3.0664 -1.38672,5.68359 -1.36719,2.59766 -3.76953,4.14062 -2.38282,1.52344 -5.21485,1.52344 -2.83203,0 -5.21484,-1.52344 -2.38281,-1.54296 -3.76953,-4.14062 -1.36719,-2.61719 -1.36719,-5.68359 z" />
        <path
           id="path871"
           style="font-style:normal;font-variant:normal;font-weight:normal;font-stretch:normal;font-family:Sawasdee;-inkscape-font-specification:Sawasdee"
           d="m 298.68885,-158.7155 1.40625,0.95703 q -2.03125,2.79297 -5.15625,4.41406 -3.125,1.60157 -6.73828,1.60157 -3.00781,0 -5.74219,-1.17188 -2.73437,-1.17187 -4.70703,-3.16406 -1.97266,-1.99219 -3.14453,-4.74609 -1.17188,-2.75391 -1.17188,-5.78125 0,-3.02735 1.17188,-5.78125 1.17187,-2.75391 3.14453,-4.7461 1.97266,-1.99219 4.70703,-3.16406 2.73438,-1.17188 5.74219,-1.17188 3.59375,0 6.71875,1.64063 3.125,1.62109 5.17578,4.43359 l -1.40625,1.03516 q -1.81641,-2.44141 -4.57031,-3.84766 -2.73438,-1.42578 -5.91797,-1.42578 -3.55469,0 -6.5625,1.75781 -2.98828,1.75782 -4.72656,4.78516 -1.73828,3.00781 -1.73828,6.58203 0,2.65625 1.01562,5.07813 1.03516,2.42187 2.77344,4.17968 1.73828,1.75782 4.16015,2.8125 2.42188,1.03516 5.07813,1.03516 3.18359,0 5.91797,-1.42578 2.7539,-1.42578 4.57031,-3.88672 z" />
        <path
           id="path873"
           style="font-style:normal;font-variant:normal;font-weight:normal;font-stretch:normal;font-family:Sawasdee;-inkscape-font-specification:Sawasdee"
           d="m 310.95448,-162.75847 h 11.75781 l -5.89844,-14.16015 z m 12.46093,1.75781 h -13.30078 l -3.71094,9.04297 h -1.875 l 12.22657,-29.51172 12.26562,29.51172 h -1.875 z" />
      </g>
    </g>
    <g
       transform="matrix(0.59671487,0,0,0.59671487,45.112285,7.5904926)"
       id="g880">
      <path
         id="path840-0"
         d="m 157.40198,-188.19301 c 0,-0.16135 -9.5e-4,-0.3228 -0.003,-0.48387 m 0,0 c -0.002,-0.1608 -0.005,-0.3218 -0.009,-0.48226 m 0,0 c -0.004,-0.16039 -0.009,-0.32091 -0.0148,-0.48099 m 0,0 c -0.006,-0.1598 -0.0127,-0.31981 -0.0206,-0.47929 m 0,0 c -0.008,-0.15937 -0.0169,-0.31872 -0.0273,-0.47777 m -0.0331,-0.47608 c -0.0118,-0.15837 -0.0247,-0.31653 -0.039,-0.47452 m -0.045,-0.47278 c -0.0156,-0.15731 -0.0329,-0.31433 -0.0509,-0.47097 m -0.0565,-0.46934 c -0.0194,-0.1561 -0.0406,-0.31191 -0.0623,-0.46753 m -0.0681,-0.4656 c -0.0232,-0.15481 -0.0483,-0.30948 -0.0739,-0.4638 m -0.0794,-0.46185 c -0.0275,-0.15352 -0.0558,-0.30687 -0.0851,-0.45986 m 0,0 c -0.0293,-0.15305 -0.0596,-0.30565 -0.0907,-0.45791 m 0,0 c -0.0312,-0.15238 -0.0632,-0.30431 -0.0963,-0.45602 m -0.10174,-0.45382 c -0.0349,-0.15106 -0.0705,-0.30144 -0.10723,-0.45172 m 0,0 c -0.0367,-0.15033 -0.0743,-0.30013 -0.11274,-0.44963 m 0,0 c -0.0384,-0.14959 -0.0778,-0.29869 -0.11802,-0.44743 m 0,0 c -0.0402,-0.14882 -0.0815,-0.2972 -0.12343,-0.44527 m 0,0 c -0.042,-0.14802 -0.085,-0.29571 -0.12883,-0.44304 m 0,0 c -0.0438,-0.14729 -0.0885,-0.29421 -0.13408,-0.44072 m 0,0 c -0.0456,-0.14677 -0.092,-0.2926 -0.13926,-0.43835 m 0,0 c -0.0473,-0.14577 -0.0955,-0.29112 -0.14459,-0.4361 m 0,0 c -0.049,-0.145 -0.099,-0.28951 -0.14975,-0.43367 m 0,0 c -0.0508,-0.14427 -0.10233,-0.28785 -0.15483,-0.43126 m 0,0 c -0.0525,-0.14353 -0.10585,-0.28625 -0.16,-0.4288 m 0,0 c -0.0543,-0.14276 -0.10915,-0.2846 -0.16509,-0.42626 m 0,0 c -0.0559,-0.142 -0.11261,-0.28288 -0.17004,-0.42372 m 0,0 c -0.0576,-0.14128 -0.11588,-0.2813 -0.17511,-0.42119 m 0,0 c -0.0592,-0.14028 -0.11927,-0.27945 -0.18004,-0.41855 m 0,0 c -0.0608,-0.13953 -0.12248,-0.27779 -0.18493,-0.41598 m 0,0 c -0.0624,-0.13847 -0.12568,-0.27589 -0.1899,-0.41324 m 0,0 c -0.0641,-0.13775 -0.12901,-0.27412 -0.19468,-0.41049 m 0,0 c -0.0658,-0.13671 -0.13217,-0.27226 -0.19952,-0.4078 m 0,0 c -0.0674,-0.13571 -0.13545,-0.27035 -0.20436,-0.40492 m 0,0 c -0.0688,-0.13497 -0.13854,-0.26863 -0.20899,-0.40217 m 0,0 c -0.0704,-0.13396 -0.14171,-0.26661 -0.21376,-0.39925 m 0,0 c -0.0719,-0.13318 -0.14485,-0.26478 -0.21842,-0.39632 m 0,0 c -0.0736,-0.13224 -0.14787,-0.26277 -0.22301,-0.39346 m 0,0 c -0.0752,-0.13117 -0.15103,-0.2608 -0.22768,-0.39037 m 0,0 c -0.0767,-0.13025 -0.15402,-0.25887 -0.23213,-0.3875 m 0,0 c -0.0781,-0.12913 -0.15711,-0.2567 -0.23674,-0.38439 m 0,0 c -0.0796,-0.1282 -0.16008,-0.25444 -0.24118,-0.38121 m 0,0 c -0.0812,-0.12727 -0.16297,-0.25233 -0.24563,-0.37822 m 0,0 c -0.0827,-0.12623 -0.16604,-0.25014 -0.2501,-0.37501 m 0,0 c -0.0841,-0.12524 -0.16888,-0.24811 -0.25442,-0.37184 m 0,0 c -0.0855,-0.12415 -0.17175,-0.24584 -0.25877,-0.3686 m 0,0 c -0.0869,-0.12292 -0.17468,-0.24376 -0.26306,-0.36527 m -7.50778,-7.69049 c -0.11902,-0.0908 -0.23849,-0.18119 -0.3586,-0.27148 m 0,0 c -0.12016,-0.0893 -0.24071,-0.17848 -0.36195,-0.26737 m 0,0 c -0.12124,-0.0881 -0.24302,-0.17571 -0.36526,-0.26317 m 0,0 c -0.12233,-0.0866 -0.24516,-0.1729 -0.36854,-0.25872 m 0,0 c -0.12336,-0.0853 -0.24725,-0.1699 -0.37175,-0.2542 m 0,0 c -0.12443,-0.0839 -0.24951,-0.16719 -0.37497,-0.24961 m 0,0 c -0.12546,-0.0824 -0.25158,-0.16435 -0.37812,-0.24527 m 0,0 c -0.12651,-0.0809 -0.25363,-0.16143 -0.38125,-0.24107 m 0,0 c -0.12766,-0.0795 -0.2557,-0.15857 -0.38433,-0.2365 m 0,0 c -0.12864,-0.0782 -0.25775,-0.15555 -0.38737,-0.23222 m 0,0 c -0.12965,-0.0766 -0.25977,-0.15257 -0.3904,-0.22773 m 0,0 c -0.13064,-0.0748 -0.26176,-0.14952 -0.39337,-0.22314 m 0,0 c -0.13159,-0.0735 -0.26373,-0.14652 -0.39632,-0.2187 m 0,0 c -0.13254,-0.0721 -0.26567,-0.14352 -0.39921,-0.21407 m 0,0 c -0.1335,-0.0704 -0.26759,-0.14053 -0.40209,-0.20965 m 0,0 c -0.13449,-0.0689 -0.26948,-0.13745 -0.40491,-0.20485 m 0,0 c -0.13548,-0.0672 -0.27134,-0.13417 -0.4077,-0.20028 m 0,0 c -0.13641,-0.0657 -0.27319,-0.13123 -0.41047,-0.19503 m 0,0 c -0.13729,-0.064 -0.275,-0.12799 -0.41317,-0.18954 m 0,0 c -0.13817,-0.0625 -0.27681,-0.12489 -0.41587,-0.18421 m 0,0 c -0.13905,-0.0609 -0.27857,-0.12136 -0.41851,-0.17942 m 0,0 c -0.13991,-0.0592 -0.28031,-0.11789 -0.42112,-0.17443 m -0.42369,-0.16967 c -0.14161,-0.056 -0.28373,-0.11087 -0.42622,-0.16492 m 0,0 c -0.14257,-0.0545 -0.28541,-0.10682 -0.42873,-0.15979 m 0,0 c -0.14336,-0.0527 -0.28705,-0.1036 -0.43119,-0.15487 m -0.43363,-0.1498 c -0.14495,-0.0494 -0.29027,-0.0967 -0.436,-0.14476 m -0.43835,-0.13975 c -0.1465,-0.0458 -0.2934,-0.0898 -0.44068,-0.13442 m -0.44294,-0.12948 c -0.14797,-0.0423 -0.29643,-0.0828 -0.4452,-0.12413 m -0.4474,-0.11885 c -0.14951,-0.037 -0.29936,-0.076 -0.44956,-0.11211 m -0.45169,-0.1066 c -0.15096,-0.0337 -0.30219,-0.0688 -0.45379,-0.10122 m -0.45585,-0.0955 c -0.15231,-0.03 -0.30491,-0.0616 -0.45787,-0.0904 m -0.45985,-0.0848 c -0.1536,-0.0266 -0.30754,-0.0543 -0.4618,-0.0794 m -0.46372,-0.0737 c -0.15486,-0.0223 -0.31008,-0.0466 -0.46559,-0.068 m -0.46742,-0.0624 c -0.15604,-0.0199 -0.31252,-0.0385 -0.46923,-0.0567 m 0,0 c -0.15663,-0.0174 -0.3137,-0.0337 -0.47098,-0.0506 m -0.47272,-0.0448 c -0.15793,-0.0125 -0.31599,-0.026 -0.47442,-0.0388 m -0.47605,-0.032 c -0.159,-0.01 -0.31819,-0.0174 -0.47768,-0.0263 m 0,0 c -0.15953,-0.008 -0.31925,-0.0149 -0.47926,-0.0199 m 0,0 c -0.16004,-0.005 -0.32028,-0.01 -0.4808,-0.0149 m 0,0 c -0.16054,-0.005 -0.32129,-0.008 -0.48231,-0.01 m 0,0 c -0.16101,-0.002 -0.32229,-0.003 -0.48378,-0.003 m 0,0 c -0.16149,0 -0.32276,7.2e-4 -0.48378,0.003 m 0,0 c -0.161,0.002 -0.32179,0.005 -0.48231,0.008 m 0,0 c -0.16053,0.005 -0.32079,0.01 -0.4808,0.0149 m 0,0 c -0.16003,0.005 -0.31977,0.0124 -0.47926,0.0199 m 0,0 c -0.15953,0.008 -0.31872,0.0174 -0.47768,0.0263 m 0,0 c -0.159,0.01 -0.31765,0.0199 -0.47606,0.032 m 0,0 c -0.15848,0.0125 -0.31656,0.0248 -0.47441,0.0388 m 0,0 c -0.15792,0.0125 -0.31542,0.028 -0.47272,0.045 m 0,0 c -0.15721,0.0149 -0.31428,0.0325 -0.47098,0.051 m 0,0 c -0.15664,0.0174 -0.31312,0.0365 -0.46923,0.0566 m 0,0 c -0.15604,0.0199 -0.31193,0.0406 -0.46742,0.0624 m 0,0 c -0.15546,0.0199 -0.31071,0.0448 -0.46558,0.0679 m 0,0 c -0.15486,0.0223 -0.30947,0.0487 -0.46372,0.0735 m 0,0 c -0.15424,0.0248 -0.30819,0.0521 -0.46181,0.0793 m 0,0 c -0.1536,0.0266 -0.30691,0.056 -0.45985,0.0849 m 0,0 c -0.15297,0.0283 -0.30558,0.0595 -0.45787,0.0904 m 0,0 c -0.15232,0.03 -0.30424,0.0632 -0.45585,0.0955 m 0,0 c -0.15164,0.0317 -0.30287,0.0669 -0.45379,0.10122 m 0,0 c -0.15096,0.0343 -0.30148,0.0703 -0.45169,0.1066 m 0,0 c -0.15028,0.0365 -0.30007,0.0739 -0.44956,0.11263 m 0,0 c -0.14956,0.037 -0.29863,0.0772 -0.4474,0.11859 m 0,0 c -0.1487,0.0394 -0.29716,0.0812 -0.44519,0.12412 m 0,0 c -0.14797,0.0412 -0.29569,0.0847 -0.44295,0.1295 m 0,0 c -0.14724,0.0437 -0.29416,0.0881 -0.44068,0.13441 m 0,0 c -0.14648,0.0458 -0.29262,0.0916 -0.43834,0.13973 m 0,0 c -0.14573,0.0474 -0.29107,0.0948 -0.43601,0.14476 m 0,0 c -0.14495,0.0493 -0.28947,0.0985 -0.43361,0.14982 m 0,0 c -0.14418,0.0507 -0.28787,0.10184 -0.43119,0.15487 m 0,0 c -0.14337,0.0526 -0.28624,0.10501 -0.42873,0.15979 m -9.455179,5.27712 c -0.11902,0.0908 -0.23739,0.18244 -0.35523,0.2758 m 0,0 c -0.11776,0.0921 -0.23518,0.18519 -0.35181,0.27996 m 0,0 c -0.11646,0.0933 -0.23254,0.18805 -0.34814,0.28407 m 0,0 c -0.11553,0.0948 -0.23049,0.19081 -0.34487,0.28806 m 0,0 c -0.11437,0.0962 -0.22818,0.19458 -0.34133,0.29215 m 0,0 c -0.11321,0.0976 -0.22578,0.19728 -0.33777,0.2962 m 0,0 c -0.11206,0.0988 -0.22337,0.20007 -0.33417,0.30019 m 0,0 c -0.11076,0.10001 -0.221,0.20282 -0.33053,0.30402 m 0,0 c -0.10952,0.10156 -0.21854,0.2053 -0.32686,0.30803 m 0,0 c -0.10831,0.10276 -0.21603,0.20782 -0.32314,0.31179 m 0,0 c -0.10708,0.10381 -0.21358,0.21013 -0.3194,0.31569 m 0,0 c -0.10587,0.10503 -0.21105,0.21261 -0.31562,0.31938 m 0,0 c -0.10462,0.10629 -0.20845,0.21511 -0.31178,0.32319 m 0,0 c -0.10337,0.10805 -0.20594,0.21764 -0.30792,0.32689 m 0,0 c -0.10194,0.10889 -0.20339,0.21995 -0.30403,0.33051 m 0,0 c -0.10068,0.11113 -0.2007,0.22244 -0.30011,0.33433 m 0,0 c -0.0994,0.11165 -0.1981,0.22474 -0.29614,0.33779 m 0,0 c -0.0981,0.11285 -0.19541,0.22691 -0.29212,0.34131 m 0,0 c -0.0968,0.11437 -0.1927,0.22949 -0.28809,0.34496 m 0,0 c -0.0953,0.11586 -0.19007,0.23172 -0.28401,0.34838 m -0.82717,1.06575 c -0.0899,0.12091 -0.17885,0.24051 -0.26731,0.36207 m 0,0 c -0.0885,0.12166 -0.17609,0.24274 -0.26307,0.36528 m 0,0 c -0.0869,0.12311 -0.1733,0.24478 -0.25876,0.36859 m 0,0 c -0.0855,0.12416 -0.17031,0.24677 -0.25442,0.37184 m -0.25011,0.37509 c -0.0827,0.1261 -0.16447,0.25101 -0.24562,0.37818 m -0.24121,0.38125 c -0.0796,0.12814 -0.1586,0.25565 -0.23673,0.38436 m -0.23213,0.38729 c -0.0767,0.13011 -0.15255,0.25976 -0.22769,0.39035 m 0,0 c -0.0752,0.13127 -0.14951,0.26177 -0.22301,0.39344 m -0.21844,0.39644 c -0.0719,0.13299 -0.14332,0.26567 -0.21376,0.39926 m 0,0 c -0.0704,0.13402 -0.1401,0.26767 -0.20899,0.40216 m 0,0 c -0.0689,0.13499 -0.13701,0.26953 -0.20436,0.40492 m -0.19951,0.40778 c -0.0658,0.13678 -0.13061,0.27322 -0.19464,0.41052 m -0.18989,0.41319 c -0.0624,0.13851 -0.1241,0.27686 -0.18494,0.41599 m -0.18007,0.41853 c -0.0592,0.14019 -0.11749,0.28038 -0.17511,0.42122 m 0,0 c -0.0576,0.14096 -0.11425,0.28206 -0.17004,0.42372 m -0.16506,0.42626 c -0.0542,0.14275 -0.10749,0.28545 -0.16001,0.4288 m -0.15483,0.43129 c -0.0508,0.14427 -0.10065,0.28871 -0.14978,0.43364 m -0.14458,0.4361 c -0.0473,0.14602 -0.0937,0.29186 -0.1393,0.43838 m -0.13417,0.44066 c -0.0439,0.14756 -0.0867,0.29496 -0.12881,0.44305 m 0,0 c -0.0421,0.14832 -0.0832,0.29644 -0.12345,0.44528 m 0,0 c -0.0402,0.14875 -0.0795,0.29788 -0.11802,0.44739 m 0,0 c -0.0385,0.1495 -0.076,0.29939 -0.11273,0.44966 m 0,0 c -0.0367,0.15028 -0.0723,0.30075 -0.10724,0.45171 m 0,0 c -0.0348,0.15107 -0.0688,0.30226 -0.1017,0.4538 m 0,0 c -0.033,0.15183 -0.0652,0.30365 -0.0963,0.45604 m 0,0 c -0.0312,0.15226 -0.0614,0.3049 -0.0908,0.45785 m 0,0 c -0.0294,0.15311 -0.0577,0.30628 -0.0851,0.45992 m 0,0 c -0.0276,0.15366 -0.054,0.30758 -0.0794,0.46183 m 0,0 c -0.0249,0.15434 -0.0502,0.30889 -0.0739,0.46377 m 0,0 c -0.0231,0.1549 -0.0464,0.31014 -0.0681,0.46565 m 0,0 c -0.0214,0.15565 -0.0427,0.31139 -0.0623,0.46757 m 0,0 c -0.0194,0.15606 -0.0388,0.31245 -0.0565,0.46932 m 0,0 c -0.0176,0.1565 -0.0349,0.31369 -0.0509,0.47093 m 0,0 c -0.0156,0.15708 -0.031,0.31495 -0.045,0.47281 m 0,0 c -0.0136,0.15791 -0.0271,0.31602 -0.0391,0.47453 m 0,0 c -0.0118,0.15827 -0.0226,0.31713 -0.0332,0.47606 m 0,0 c -0.01,0.15889 -0.0188,0.31823 -0.0274,0.47778 m 0,0 c -0.008,0.15932 -0.0148,0.31929 -0.0209,0.47929 m 0,0 c -0.006,0.15988 -0.0108,0.32037 -0.0148,0.48096 m 0,0 c -0.004,0.16028 -0.007,0.3213 -0.01,0.48229 m 0,0 c -0.002,0.16089 -0.003,0.32233 -0.003,0.48383 m 0,0 c 0,0.16137 9.5e-4,0.32279 0.003,0.48389 m 0,0 c 0.002,0.16079 0.005,0.32182 0.01,0.48231 m 0,0 c 0.004,0.16037 0.01,0.32083 0.0148,0.48089 m 0,0 c 0.006,0.15987 0.0128,0.31985 0.0206,0.47936 m 0,0 c 0.008,0.15931 0.0168,0.31878 0.0273,0.47772 m 0,0 c 0.01,0.15885 0.0206,0.31767 0.0332,0.47617 m 0,0 c 0.0118,0.15835 0.0246,0.31653 0.0391,0.47447 m 0,0 c 0.0139,0.1578 0.0291,0.31548 0.045,0.4727 m 0,0 c 0.0156,0.15712 0.0329,0.31436 0.0509,0.47105 m 0,0 c 0.0176,0.15666 0.0369,0.3132 0.0565,0.46934 m 0,0 c 0.0194,0.15606 0.0406,0.31192 0.0623,0.46753 m 0,0 c 0.0214,0.15552 0.0445,0.31064 0.0681,0.46561 m 0,0 c 0.0231,0.15477 0.0483,0.30946 0.0739,0.46377 m 0,0 c 0.0249,0.15427 0.0521,0.30817 0.0794,0.46185 m 0,0 c 0.0275,0.15353 0.0558,0.30689 0.0851,0.4599 m 0,0 c 0.0294,0.15305 0.0596,0.30564 0.0908,0.4579 m 0,0 c 0.0312,0.15239 0.0632,0.30432 0.0963,0.45594 m 0,0 c 0.033,0.1515 0.067,0.3029 0.1017,0.45388 m 0,0 c 0.0349,0.15101 0.0705,0.30147 0.10725,0.45169 m 0,0 c 0.0367,0.15036 0.0743,0.30016 0.11274,0.44962 m 0,0 c 0.0385,0.14952 0.0778,0.29867 0.11802,0.44745 m 0,0 c 0.0402,0.14887 0.0814,0.2972 0.12344,0.44531 m 0,0 c 0.042,0.14801 0.0849,0.29569 0.12882,0.44295 m 0,0 c 0.0439,0.14752 0.0886,0.29421 0.13402,0.44077 m 0,0 c 0.0456,0.14677 0.092,0.29261 0.13928,0.43833 m 0,0 c 0.0473,0.14603 0.0955,0.29112 0.14458,0.43611 m 0,0 c 0.049,0.14528 0.099,0.28953 0.14977,0.43361 m 0,0 c 0.0508,0.14426 0.10235,0.28796 0.15484,0.43133 m 0,0 c 0.0525,0.14352 0.10585,0.28623 0.16001,0.42877 m 0,0 c 0.0542,0.14276 0.10914,0.28463 0.16511,0.42628 m 0,0 c 0.0558,0.14202 0.1126,0.28295 0.17004,0.42372 m 6.06901,10.00691 c 0.0968,0.11385 0.19404,0.22817 0.29213,0.34131 m 0,0 c 0.0981,0.11306 0.19683,0.2259 0.29613,0.3378 m 0,0 c 0.0994,0.11158 0.19942,0.22345 0.3001,0.33428 m 0,0 c 0.10068,0.11055 0.20198,0.22108 0.30404,0.33047 m 0,0 c 0.10192,0.10937 0.20469,0.21896 0.30793,0.32691 m 0,0 c 0.1033,0.10757 0.2072,0.21643 0.31179,0.32321 m 0,0 c 0.10462,0.10628 0.20972,0.21387 0.3156,0.31945 m 0,0 c 0.10589,0.10505 0.21236,0.21138 0.31939,0.31562 m 0,0 c 0.10712,0.10404 0.2148,0.20914 0.32315,0.31183 m 0,0 c 0.10832,0.10284 0.21724,0.20658 0.32687,0.30802 m 0,0 c 0.10951,0.10124 0.2198,0.20383 0.33053,0.30402 m 0,0 c 0.11072,0.10035 0.22216,0.20134 0.33415,0.30024 m 0,0 c 0.11207,0.0987 0.22453,0.19852 0.33778,0.29608 m 0,0 c 0.11322,0.0975 0.22703,0.19634 0.34134,0.29218 m 0,0 c 0.11436,0.0963 0.22934,0.19307 0.34486,0.2881 m 0,0 c 0.11552,0.0948 0.2316,0.19028 0.34836,0.28403 m 0,0 c 0.11665,0.0933 0.23401,0.18746 0.3518,0.27994 m 0,0 c 0.11777,0.0921 0.23628,0.18377 0.35523,0.27578 m 0,0 c 0.11899,0.0908 0.23849,0.18121 0.3586,0.27152 m 0,0 c 0.12015,0.0893 0.24073,0.17846 0.36195,0.26739 m 0,0 c 0.12123,0.0881 0.24301,0.17566 0.36526,0.26316 m 0,0 c 0.12232,0.0866 0.24516,0.17292 0.36853,0.25876 m 0,0 c 0.12337,0.0853 0.24726,0.16986 0.37177,0.25413 m 0,0 c 0.12442,0.0839 0.24946,0.16715 0.37495,0.24961 m 0,0 c 0.12546,0.0824 0.25159,0.16437 0.37812,0.24527 m 0,0 c 0.12659,0.0809 0.253639,0.16138 0.381249,0.2411 m 0,0 c 0.12766,0.0794 0.25572,0.1583 0.38432,0.23647 m 0,0 c 0.12866,0.0778 0.25776,0.15556 0.3874,0.23222 m 0,0 c 0.12965,0.0761 0.25976,0.15256 0.39039,0.22776 m 0,0 c 0.13063,0.0749 0.26177,0.1495 0.39336,0.22311 m 0,0 c 0.1316,0.0736 0.26373,0.14656 0.39632,0.21867 m 0,0 c 0.13255,0.072 0.26568,0.14354 0.39923,0.21412 m 0,0 c 0.13349,0.0703 0.26757,0.14052 0.40208,0.20964 m 0,0 c 0.13454,0.069 0.26947,0.13746 0.40491,0.20488 m 0,0 c 0.1355,0.0672 0.27134,0.13414 0.4077,0.20028 m 0,0 c 0.13641,0.0658 0.27319,0.13117 0.41046,0.19549 m 0,0 c 0.13729,0.0639 0.27501,0.128 0.41319,0.19007 m 0,0 c 0.13816,0.0624 0.27679,0.12488 0.41585,0.18419 m 0,0 c 0.13905,0.061 0.27857,0.12166 0.41851,0.17945 m 0,0 c 0.13992,0.0592 0.28032,0.11839 0.42112,0.17468 m 0,0 c 0.14073,0.0578 0.28204,0.11435 0.4237,0.16962 m 0,0 c 0.14169,0.056 0.28373,0.11113 0.42622,0.16464 m 0,0 c 0.14257,0.0545 0.2854,0.10689 0.42873,0.15988 m 0,0 c 0.14337,0.0527 0.28704,0.1035 0.43119,0.15482 m 0,0 c 0.14418,0.0509 0.28868,0.1 0.43361,0.14977 m 0,0 c 0.14495,0.0493 0.29028,0.0967 0.436,0.14477 m 0,0 c 0.14574,0.0475 0.29185,0.0933 0.43835,0.13978 m 0,0 c 0.14649,0.0458 0.2934,0.0898 0.44068,0.13444 m 0,0 c 0.14724,0.0441 0.29491,0.0864 0.44294,0.12942 m 0.44519,0.12416 c 0.14872,0.0393 0.2979,0.0794 0.44739,0.11886 m 0.44958,0.11188 c 0.15028,0.0365 0.30077,0.0722 0.45169,0.10658 m 0.45378,0.10122 c 0.15164,0.0317 0.30358,0.0649 0.45585,0.0955 m 0,0 c 0.15233,0.03 0.30492,0.0616 0.45788,0.0904 m 0.45985,0.0849 c 0.1536,0.0266 0.30754,0.0543 0.4618,0.0794 m 0.46372,0.0736 c 0.15485,0.0223 0.31008,0.0465 0.46558,0.0679 m 0.46743,0.0624 c 0.15604,0.0199 0.31252,0.0385 0.46922,0.0566 m 0.47099,0.0508 c 0.15727,0.0149 0.31487,0.0298 0.47271,0.0453 m 0.47442,0.0385 c 0.15848,0.0125 0.3171,0.0223 0.47605,0.0323 m 0,0 c 0.15901,0.01 0.31819,0.0174 0.47769,0.0263 m 0.47926,0.0199 c 0.16004,0.005 0.32028,0.01 0.4808,0.0149 m 0,0 c 0.16054,0.005 0.3213,0.008 0.48231,0.01 m 0,0 c 0.16101,0.002 0.32228,0.003 0.48377,0.003 m 0,0 c 0.16151,0 0.32277,-0.001 0.48379,-0.003 m 0,0 c 0.16101,-0.002 0.32178,-0.005 0.48231,-0.008 m 0,0 c 0.16054,-0.005 0.32078,-0.01 0.4808,-0.0149 m 0,0 c 0.16004,-0.005 0.31978,-0.0125 0.47927,-0.0199 m 0,0 c 0.15952,-0.008 0.31871,-0.0174 0.47767,-0.0263 m 0,0 c 0.159,-0.01 0.31764,-0.0199 0.47606,-0.032 m 0,0 c 0.15848,-0.0125 0.31655,-0.0248 0.47441,-0.0388 m 0,0 c 0.15792,-0.0125 0.31543,-0.028 0.47271,-0.0452 m 0,0 c 0.15734,-0.0149 0.31428,-0.032 0.471,-0.051 m 0,0 c 0.15664,-0.0174 0.31312,-0.036 0.46921,-0.0566 m 0,0 c 0.15604,-0.0199 0.31193,-0.0411 0.46744,-0.0624 m 0,0 c 0.15546,-0.0199 0.3107,-0.0432 0.46558,-0.0679 m 0,0 c 0.15486,-0.0223 0.30946,-0.0486 0.46371,-0.0737 m 0,0 c 0.15424,-0.0248 0.30819,-0.0521 0.46181,-0.0792 m 0,0 c 0.1536,-0.0266 0.3069,-0.056 0.45985,-0.0849 m 0,0 c 0.15297,-0.0283 0.30558,-0.0595 0.45787,-0.0904 m 0,0 c 0.15232,-0.03 0.30424,-0.0632 0.45584,-0.0955 m 0,0 c 0.15164,-0.0318 0.30288,-0.0667 0.4538,-0.10129 m 0,0 c 0.15096,-0.034 0.30148,-0.0703 0.4517,-0.10659 m 0,0 c 0.15027,-0.0362 0.30006,-0.0739 0.44956,-0.1126 m 0,0 c 0.1495,-0.038 0.29863,-0.0772 0.44739,-0.11814 m 0,0 c 0.14872,-0.04 0.29717,-0.0812 0.44519,-0.12413 m 0,0 c 0.14798,-0.0411 0.29568,-0.0844 0.44295,-0.1294 m 0,0 c 0.14724,-0.0439 0.29416,-0.0881 0.44067,-0.13448 m 0,0 c 0.14649,-0.0458 0.29263,-0.0916 0.43835,-0.13978 m 0,0 c 0.14574,-0.0475 0.29107,-0.0948 0.43601,-0.14476 m 0,0 c 0.14496,-0.0494 0.28947,-0.0984 0.43361,-0.14976 m 0,0 c 0.14418,-0.0507 0.28788,-0.10182 0.43119,-0.15481 m 0,0 c 0.14337,-0.0525 0.28623,-0.10508 0.42872,-0.1599 m 0,0 c 0.14257,-0.0545 0.28458,-0.10859 0.42623,-0.16487 m 0,0 c 0.1416,-0.056 0.28289,-0.1123 0.42369,-0.16962 m 0,0 c 0.14073,-0.0578 0.28119,-0.11637 0.42112,-0.17466 m 0,0 c 0.13991,-0.0592 0.27945,-0.11969 0.41852,-0.1795 m 0,0 c 0.13902,-0.061 0.27768,-0.12314 0.41586,-0.18419 m 0,0 c 0.13816,-0.0624 0.2759,-0.12642 0.41317,-0.19029 m 0,0 c 0.13729,-0.0641 0.27411,-0.12965 0.41047,-0.19469 m 0,0 c 0.13642,-0.0657 0.27226,-0.13281 0.40771,-0.20034 m 0,0 c 0.13549,-0.0673 0.2704,-0.13578 0.4049,-0.20481 m 0,0 c 0.13456,-0.0689 0.26853,-0.13903 0.40208,-0.20967 m 0,0 c 0.13353,-0.0703 0.26663,-0.14201 0.39922,-0.21416 m 0,0 c 0.13253,-0.0718 0.26469,-0.14502 0.39631,-0.21864 m 0,0 c 0.13159,-0.0731 0.26274,-0.14806 0.39337,-0.22316 m 0,0 c 0.13064,-0.0746 0.26077,-0.15108 0.3904,-0.22774 m 12.98889,-12.83618 c 0.0781,-0.12914 0.15548,-0.25776 0.23213,-0.38742 m 0,0 c 0.0767,-0.13021 0.15254,-0.25971 0.22768,-0.39043 m 0,0 c 0.0752,-0.1312 0.14948,-0.26182 0.22301,-0.39343 m 0,0 c 0.0737,-0.13223 0.14637,-0.2637 0.2184,-0.39636 m 0,0 c 0.0719,-0.13298 0.14331,-0.2656 0.21375,-0.39929 m 0,0 c 0.0704,-0.13392 0.14011,-0.26761 0.209,-0.4021 m 0,0 c 0.0688,-0.13495 0.13701,-0.26948 0.20436,-0.40496 m 0,0 c 0.0674,-0.13596 0.13379,-0.27137 0.19952,-0.40771 m 0,0 c 0.0657,-0.13672 0.1306,-0.27324 0.19463,-0.41062 m 0,0 c 0.064,-0.1377 0.12743,-0.27497 0.18989,-0.41314 m 0,0 c 0.0624,-0.13854 0.12409,-0.27686 0.18493,-0.41594 m 0,0 c 0.0608,-0.13946 0.12089,-0.27861 0.1801,-0.41858 m 0,0 c 0.0592,-0.14028 0.11749,-0.28037 0.17511,-0.42115 m 0,0 c 0.0576,-0.14097 0.11424,-0.28204 0.17003,-0.42373 m 0,0 c 0.0559,-0.14202 0.11086,-0.2838 0.16509,-0.42633 m 0,0 c 0.0543,-0.14273 0.10749,-0.28539 0.16001,-0.42874 m 0,0 c 0.0526,-0.14353 0.10415,-0.28709 0.15482,-0.43126 m 0,0 c 0.0508,-0.14425 0.10065,-0.28867 0.14979,-0.43364 m 0,0 c 0.049,-0.1453 0.0973,-0.29034 0.14455,-0.43614 m 0,0 c 0.0473,-0.14579 0.0937,-0.29185 0.1393,-0.4384 m 0,0 c 0.0456,-0.14675 0.0903,-0.2934 0.13415,-0.44069 m 0,0 c 0.0439,-0.14753 0.0867,-0.29496 0.12882,-0.44301 m 0,0 c 0.042,-0.14802 0.0832,-0.29641 0.12344,-0.44529 m 0,0 c 0.0402,-0.14876 0.0795,-0.29794 0.11804,-0.44745 m 0,0 c 0.0385,-0.14951 0.0761,-0.29935 0.11274,-0.44959 m 0,0 c 0.0367,-0.15031 0.0723,-0.30082 0.10723,-0.45173 m 0,0 c 0.0349,-0.15104 0.0687,-0.30227 0.1017,-0.45383 m 0,0 c 0.0329,-0.15181 0.0652,-0.30356 0.0963,-0.45596 m 0,0 c 0.0312,-0.15229 0.0614,-0.30488 0.0906,-0.45784 m 0,0 c 0.0294,-0.15315 0.0578,-0.30635 0.0851,-0.45992 m 0,0 c 0.0276,-0.15359 0.054,-0.30762 0.0794,-0.46191 m 0,0 c 0.025,-0.15431 0.0503,-0.30887 0.0739,-0.46375 m 0,0 c 0.0232,-0.15484 0.0465,-0.31017 0.0681,-0.46566 m 0,0 c 0.0214,-0.15564 0.0426,-0.31137 0.0623,-0.46755 m 0,0 c 0.0194,-0.15607 0.0387,-0.31245 0.0565,-0.4692 m 0,0 c 0.0177,-0.15659 0.0349,-0.31374 0.0509,-0.47107 m 0,0 c 0.0157,-0.1573 0.031,-0.31494 0.045,-0.47275 m 0,0 c 0.0135,-0.15788 0.0271,-0.31609 0.0391,-0.47447 m 0,0 c 0.0118,-0.15836 0.0227,-0.31717 0.0331,-0.47616 m 0,0 c 0.01,-0.15883 0.0186,-0.3182 0.0273,-0.47772 m 0,0 c 0.008,-0.15936 0.0148,-0.3193 0.0209,-0.47936 m 0,0 c 0.006,-0.15983 0.0107,-0.32035 0.0148,-0.48089 m 0,0 c 0.004,-0.16032 0.007,-0.32134 0.009,-0.48233 m 0,0 c 0.002,-0.16088 0.003,-0.32227 0.003,-0.48386"
         style="display:inline;opacity:0.98;fill:#999999;fill-opacity:1;stroke:#000000;stroke-width:1.80062;stroke-linecap:butt;stroke-linejoin:miter;stroke-miterlimit:7.9;stroke-dasharray:none;stroke-dashoffset:0;stroke-opacity:0.249871;paint-order:markers stroke fill" />
      <path
         id="path840-0-3"
         d="m 156.55751,-168.325 c 0.0857,-0.1574 0.17011,-0.31554 0.25365,-0.47372 m 0,0 c 0.0834,-0.15791 0.16567,-0.31668 0.24723,-0.47518 m 0,0 c 0.0813,-0.15858 0.16159,-0.31779 0.24084,-0.47705 m 0,0 c 0.079,-0.15906 0.15726,-0.31874 0.23423,-0.47849 m 0,0 c 0.0771,-0.15956 0.15266,-0.31988 0.22697,-0.48053 m 0.22037,-0.48198 c 0.0726,-0.16074 0.1439,-0.32188 0.21372,-0.48363 m 0.20697,-0.4851 c 0.0683,-0.16174 0.13476,-0.32406 0.20024,-0.48646 m 0.19392,-0.48785 c 0.064,-0.16256 0.12599,-0.32578 0.18732,-0.48915 m 0.18065,-0.49034 c 0.0597,-0.1633 0.11719,-0.32749 0.17403,-0.49167 m 0.16761,-0.49269 c 0.0547,-0.16436 0.10843,-0.32896 0.16103,-0.49376 m 0,0 c 0.0526,-0.16485 0.10415,-0.32977 0.15453,-0.49482 m 0,0 c 0.0505,-0.16517 0.0999,-0.33037 0.14809,-0.49595 m 0.1416,-0.4967 c 0.0462,-0.16586 0.0911,-0.33146 0.13513,-0.49755 m 0,0 c 0.044,-0.16611 0.0868,-0.33223 0.12865,-0.49844 m 0,0 c 0.0419,-0.16632 0.0826,-0.33268 0.12235,-0.4991 m 0,0 c 0.0398,-0.1665 0.0782,-0.33317 0.11588,-0.49986 m 0,0 c 0.0376,-0.16671 0.074,-0.33356 0.10947,-0.50056 m 0,0 c 0.0353,-0.16694 0.0697,-0.33396 0.10309,-0.50106 m 0,0 c 0.0334,-0.16738 0.0656,-0.33426 0.0968,-0.50153 m 0,0 c 0.0313,-0.1673 0.0614,-0.33467 0.0905,-0.50214 m 0,0 c 0.0291,-0.16747 0.0571,-0.33495 0.0841,-0.50251 m 0,0 c 0.0269,-0.16774 0.053,-0.33512 0.0778,-0.50287 m 0,0 c 0.0249,-0.16789 0.0487,-0.33541 0.0715,-0.5032 m 0,0 c 0.0229,-0.16804 0.0446,-0.33555 0.0652,-0.50343 m 0,0 c 0.0208,-0.16814 0.0403,-0.33571 0.059,-0.50357 m 0,0 c 0.0188,-0.16836 0.0363,-0.33591 0.0527,-0.50381 m 0,0 c 0.0166,-0.16827 0.0319,-0.33589 0.0466,-0.50385 m 0,0 c 0.0148,-0.16837 0.028,-0.33598 0.0404,-0.50393 m 0,0 c 0.0127,-0.16819 0.0238,-0.33583 0.034,-0.50389 m 0,0 c 0.0106,-0.16834 0.0197,-0.33588 0.028,-0.50375 m 0,0 c 0.008,-0.16827 0.0155,-0.33573 0.0219,-0.5037 m 0,0 c 0.006,-0.16811 0.0113,-0.33562 0.0155,-0.50345 m 0,0 c 0.004,-0.16821 0.007,-0.33558 0.01,-0.50323 m 0,0 c 0.002,-0.16804 0.003,-0.33528 0.003,-0.50292 m 0,0 c 5e-4,-0.16808 -7.8e-4,-0.33517 -0.003,-0.50252 m 0,0 c -0.002,-0.16809 -0.005,-0.33481 -0.008,-0.50218 m 0,0 c -0.003,-0.16786 -0.008,-0.33456 -0.0149,-0.50164 m 0,0 c -0.005,-0.16774 -0.0129,-0.33426 -0.0207,-0.50119 m 0,0 c -0.007,-0.16743 -0.017,-0.33379 -0.0269,-0.50062 m 0,0 c -0.01,-0.1673 -0.0211,-0.33316 -0.033,-0.49987 m 0,0 c -0.0117,-0.16727 -0.0251,-0.33264 -0.0388,-0.49931 m 0,0 c -0.0137,-0.16704 -0.0292,-0.33212 -0.0449,-0.49855 m 0,0 c -0.0156,-0.16681 -0.0331,-0.33166 -0.0508,-0.49776 m 0,0 c -0.0175,-0.16648 -0.0371,-0.33096 -0.0568,-0.4969 m 0,0 c -0.0196,-0.16602 -0.0412,-0.33048 -0.0628,-0.49593 m -3.24236,-11.4866 c -0.0679,-0.15178 -0.13648,-0.30332 -0.20573,-0.45515 m 0,0 c -0.0698,-0.1509 -0.14008,-0.30186 -0.21119,-0.45291 m 0,0 c -0.0716,-0.15027 -0.1438,-0.30038 -0.21665,-0.45057 m 0,0 c -0.0734,-0.14937 -0.14736,-0.29878 -0.22218,-0.44797 m 0,0 c -0.0751,-0.14872 -0.15103,-0.29697 -0.22774,-0.44528 m 0,0 c -0.0769,-0.14788 -0.15466,-0.2955 -0.2333,-0.44249 m 0,0 c -0.0786,-0.14695 -0.1582,-0.29385 -0.23869,-0.43994 m 0,0 c -0.0805,-0.14602 -0.16174,-0.29207 -0.24396,-0.4375 m 0,0 c -0.0823,-0.14534 -0.16529,-0.29038 -0.24941,-0.43468 m 0,0 c -0.084,-0.14456 -0.16888,-0.28853 -0.25463,-0.43211 m 0,0 c -0.0858,-0.14352 -0.17244,-0.28669 -0.25997,-0.42933 m 0,0 c -0.0876,-0.1423 -0.17599,-0.28479 -0.26531,-0.42645 m 0,0 c -0.0893,-0.14159 -0.1795,-0.28292 -0.27054,-0.42369 m 0,0 c -0.0909,-0.1407 -0.18298,-0.28099 -0.27581,-0.42069 m 0,0 c -0.0929,-0.13954 -0.18645,-0.2791 -0.28098,-0.4179 m 0,0 c -0.0947,-0.13858 -0.18992,-0.27709 -0.28628,-0.41473 m 0,0 c -0.0965,-0.13745 -0.19348,-0.27489 -0.2914,-0.41175 m 0,0 c -0.0982,-0.13644 -0.19685,-0.27299 -0.29691,-0.40809 m 0,0 c -0.0999,-0.13533 -0.20034,-0.2708 -0.30245,-0.40419 m 0,0 c -0.10163,-0.13431 -0.20374,-0.26872 -0.30792,-0.40037 m 0,0 c -0.10332,-0.13323 -0.20734,-0.26624 -0.31304,-0.39716 m 0,0 c -0.1051,-0.13199 -0.21087,-0.26375 -0.31822,-0.39363 m -0.32326,-0.39038 c -0.10843,-0.12975 -0.21794,-0.25873 -0.32826,-0.38708 m 0,0 c -0.11013,-0.12886 -0.22172,-0.25567 -0.33342,-0.38341 m 0,0 c -0.11185,-0.12754 -0.22502,-0.2534 -0.33842,-0.37991 m -0.3435,-0.37628 c -0.11519,-0.12513 -0.23185,-0.24837 -0.3485,-0.3726 m -0.35344,-0.36895 c -0.11861,-0.12244 -0.23856,-0.24331 -0.35854,-0.36501 m -0.36336,-0.36139 c -0.1219,-0.11976 -0.24524,-0.23805 -0.36842,-0.35735 m -0.37336,-0.35339 c -0.12622,-0.1154 -0.25167,-0.23303 -0.37904,-0.34796 m -0.38404,-0.34369 c -0.12937,-0.11303 -0.25829,-0.2275 -0.38897,-0.33959 m -0.394,-0.33504 c -0.13267,-0.11012 -0.26477,-0.22188 -0.3987,-0.33115 m -0.40354,-0.32683 c -0.13572,-0.10747 -0.27122,-0.21614 -0.40839,-0.32248 m -0.41321,-0.31803 c -0.13922,-0.10394 -0.27777,-0.20999 -0.41807,-0.31347 m -0.42284,-0.30897 c -0.14167,-0.10214 -0.28443,-0.20341 -0.42761,-0.30436 m 0,0 c -0.14358,-0.10003 -0.28812,-0.19939 -0.43258,-0.29937 m -0.43738,-0.29454 c -0.14745,-0.0959 -0.29442,-0.1931 -0.4422,-0.2896 m -0.44739,-0.28389 c -0.14987,-0.094 -0.30117,-0.18584 -0.45201,-0.27918 m 0,0 c -0.15159,-0.0922 -0.30351,-0.18399 -0.45698,-0.27373 m 0,0 c -0.1536,-0.0895 -0.30719,-0.17963 -0.4611,-0.26972 m 0,0 c -0.15409,-0.0897 -0.30939,-0.17794 -0.46525,-0.26562 m 0,0 c -0.15605,-0.0872 -0.31287,-0.17381 -0.47041,-0.25952 m 0,0 c -0.15754,-0.0857 -0.31523,-0.1706 -0.47344,-0.25397 m 0,0 c -0.15807,-0.0836 -0.31643,-0.16614 -0.47452,-0.24856 m 0,0 c -0.15913,-0.0806 -0.31817,-0.16061 -0.47694,-0.24062 m 0,0 c -0.15863,-0.0803 -0.31854,-0.15756 -0.47805,-0.23497 m 0,0 c -0.15966,-0.0773 -0.32015,-0.15219 -0.47994,-0.22783 m 0,0 c -0.16041,-0.0747 -0.32041,-0.14921 -0.48141,-0.22143 m 0,0 c -0.1612,-0.0719 -0.32194,-0.1438 -0.48334,-0.21395 m 0,0 c -0.16067,-0.0717 -0.32259,-0.14005 -0.48504,-0.20695 m 0,0 c -0.16128,-0.0689 -0.32383,-0.13507 -0.48652,-0.20018 m 0,0 c -0.16204,-0.0662 -0.32482,-0.13058 -0.48779,-0.19377 m 0,0 c -0.16277,-0.0635 -0.32582,-0.12596 -0.48912,-0.18719 m 0,0 c -0.16218,-0.0631 -0.32683,-0.12123 -0.49022,-0.1808 m 0,0 c -0.16291,-0.0603 -0.32771,-0.11677 -0.49138,-0.17435 m 0,0 c -0.16363,-0.0576 -0.32829,-0.11276 -0.49261,-0.16769 m 0,0 c -0.16395,-0.0555 -0.32908,-0.10828 -0.4936,-0.16127 m 0,0 c -0.16426,-0.0535 -0.32968,-0.10415 -0.49461,-0.15485 m 0,0 c -0.16453,-0.0516 -0.33033,-0.0998 -0.49536,-0.1488 m 0,0 c -0.16475,-0.0494 -0.33095,-0.0955 -0.49639,-0.1421 m 0,0 c -0.16546,-0.0467 -0.33139,-0.0913 -0.4972,-0.13573 m 0,0 c -0.16596,-0.0441 -0.33195,-0.0871 -0.49831,-0.1287 m 0,0 c -0.16552,-0.0433 -0.33227,-0.0833 -0.49939,-0.12178 m 0,0 c -0.16597,-0.0404 -0.33294,-0.0785 -0.50015,-0.11519 m 0,0 c -0.16622,-0.0383 -0.33336,-0.0743 -0.50081,-0.10875 m 0,0 c -0.16683,-0.0354 -0.3337,-0.0702 -0.50121,-0.10278 m 0,0 c -0.1672,-0.0331 -0.33406,-0.0659 -0.50177,-0.0963 m 0,0 c -0.16733,-0.0312 -0.33426,-0.062 -0.50214,-0.0903 m 0,0 c -0.16758,-0.0288 -0.33466,-0.0575 -0.50249,-0.084 m 0,0 c -0.16757,-0.027 -0.33487,-0.0534 -0.50282,-0.0777 m 0,0 c -0.16779,-0.0247 -0.33495,-0.0494 -0.50302,-0.0717 m -12.02414,0.12978 c -0.16431,0.0254 -0.32839,0.052 -0.4929,0.0805 m 0,0 c -0.16375,0.0273 -0.3277,0.0558 -0.49175,0.0865 m 0,0 c -0.16314,0.0292 -0.32666,0.06 -0.49039,0.0924 m 0,0 c -0.16303,0.0313 -0.32609,0.0639 -0.48928,0.0979 m 0,0 c -0.16266,0.0332 -0.32587,0.0687 -0.48804,0.10384 m 0,0 c -0.1622,0.0351 -0.32493,0.0726 -0.48668,0.10968 m 0,0 c -0.16175,0.037 -0.32407,0.0767 -0.48529,0.11549 m 0,0 c -0.16112,0.0387 -0.32322,0.0805 -0.4838,0.12116 m 0,0 c -0.16073,0.0409 -0.32213,0.0843 -0.48231,0.12701 m 0,0 c -0.16019,0.0428 -0.32102,0.0882 -0.4807,0.13263 m 0,0 c -0.15954,0.0445 -0.31987,0.0916 -0.47911,0.13845 m 0,0 c -0.15901,0.0463 -0.31872,0.0954 -0.47738,0.14405 m 0,0 c -0.15847,0.0483 -0.31751,0.0992 -0.47566,0.1498 m 0,0 c -0.15819,0.0506 -0.3164,0.103 -0.47388,0.15546 m 0,0 c -0.15722,0.0521 -0.31512,0.10663 -0.47198,0.16107 m 0,0 c -0.15718,0.055 -0.31383,0.11046 -0.47019,0.16685 m 0,0 c -0.15618,0.0561 -0.31252,0.1141 -0.46815,0.17236 m 0,0 c -0.15556,0.0581 -0.31105,0.11764 -0.4661,0.17791 m 0,0 c -0.1551,0.0603 -0.30977,0.12159 -0.46411,0.18361 m 0,0 c -0.15447,0.0624 -0.30837,0.12518 -0.46194,0.18912 m -1.37249,0.60063 c -0.15183,0.0703 -0.30212,0.1397 -0.45294,0.21134 m 0,0 c -0.15086,0.0717 -0.30061,0.14333 -0.45047,0.2167 m 0,0 c -0.15011,0.0739 -0.29898,0.14682 -0.44804,0.22225 m 0,0 c -0.14929,0.0757 -0.29712,0.15033 -0.44552,0.22769 m -0.44305,0.23316 c -0.14755,0.0792 -0.29366,0.15757 -0.440309,0.23855 m -0.43763,0.24389 c -0.14566,0.0827 -0.2904,0.16523 -0.43492,0.2493 m -0.43199,0.2546 c -0.14382,0.0862 -0.28665,0.17244 -0.42926,0.25995 m 0,0 c -0.14299,0.0883 -0.28476,0.17601 -0.42636,0.26545 m -0.42348,0.2708 c -0.14077,0.0915 -0.28081,0.1831 -0.42041,0.27603 m 0,0 c -0.1398,0.0934 -0.27872,0.18674 -0.4173,0.28137 m 0,0 c -0.13884,0.0951 -0.2767,0.19021 -0.41425,0.28654 m -0.41104,0.2919 c -0.13675,0.0985 -0.2724,0.19721 -0.40774,0.29716 m -0.40451,0.30228 c -0.13443,0.10193 -0.268,0.20422 -0.40117,0.30765 m -0.39779,0.3127 c -0.13219,0.10531 -0.26341,0.21117 -0.39436,0.31797 m 0,0 c -0.13098,0.10694 -0.26116,0.21452 -0.39074,0.3231 m -0.38725,0.32819 c -0.12859,0.11052 -0.25635,0.22142 -0.38365,0.33338 m -0.37994,0.33855 c -0.12616,0.11375 -0.2514,0.22821 -0.37625,0.34352 m -0.37248,0.34868 c -0.1236,0.11736 -0.2463,0.23498 -0.36853,0.3537 m -0.36474,0.35866 c -0.12109,0.12067 -0.24111,0.24173 -0.36081,0.36382 m 0,0 c -0.11976,0.12234 -0.23849,0.24502 -0.35673,0.36885 m 0,0 c -0.11817,0.12377 -0.23569,0.24836 -0.35256,0.3738 m 0,0 c -0.11684,0.12542 -0.23307,0.25169 -0.34861,0.37882 m 0,0 c -0.11555,0.1271 -0.23016,0.25497 -0.34433,0.38371 m 0,0 c -0.11412,0.12889 -0.2275,0.25836 -0.34005,0.38871 m 0,0 c -0.11272,0.13063 -0.22472,0.26163 -0.33594,0.39377 m 0,0 c -0.11119,0.132 -0.22171,0.26484 -0.33149,0.39846 m 0,0 c -0.10987,0.13381 -0.21883,0.26817 -0.32709,0.4035 m 0,0 c -0.10839,0.13529 -0.21584,0.27141 -0.32258,0.40836 m 0,0 c -0.1062,0.13735 -0.21292,0.27467 -0.31825,0.41318 m 0,0 c -0.10478,0.13882 -0.20982,0.27792 -0.31359,0.41805 m 0,0 c -0.10343,0.14049 -0.20687,0.28114 -0.309,0.42301 m 0,0 c -0.10174,0.14197 -0.20361,0.28424 -0.30427,0.4278 m 0,0 c -0.10023,0.14333 -0.20047,0.28752 -0.29957,0.43238 m 0,0 c -0.0985,0.14495 -0.19736,0.2908 -0.29483,0.43732 m 0,0 c -0.0971,0.14684 -0.19415,0.29391 -0.29,0.44215 m 0,0 c -0.0955,0.14812 -0.19036,0.29736 -0.28498,0.44681 m 0,0 c -0.0939,0.14979 -0.18727,0.30042 -0.28024,0.45158 m 0,0 c -0.0922,0.15126 -0.1839,0.30359 -0.2747,0.45646 m 0,0 c -0.0906,0.15278 -0.18057,0.30678 -0.26971,0.46131 m 0,0 c -0.0889,0.15425 -0.17734,0.30971 -0.26478,0.46568 m 0,0 c -0.0873,0.15587 -0.17398,0.31284 -0.25969,0.47039 m 0,0 c -0.0855,0.15742 -0.17032,0.31541 -0.25388,0.47361 m 0,0 c -0.0834,0.15792 -0.16592,0.3166 -0.24717,0.47529 m 0,0 c -0.0813,0.15855 -0.16144,0.31776 -0.24073,0.47696 m 0,0 c -0.0791,0.15914 -0.15727,0.31882 -0.23432,0.47855 m 0,0 c -0.077,0.15956 -0.15276,0.31992 -0.22693,0.48049 m 0,0 c -0.0748,0.16016 -0.1485,0.32082 -0.22039,0.4821 m 0,0 c -0.0725,0.16073 -0.14395,0.32183 -0.21365,0.48358 m 0,0 c -0.0703,0.16127 -0.1391,0.32317 -0.20697,0.48502 m 0,0 c -0.0682,0.16154 -0.13477,0.3241 -0.20034,0.48652 m 0,0 c -0.0659,0.16214 -0.13027,0.32508 -0.1939,0.48785 m 0,0 c -0.0639,0.1625 -0.12595,0.32583 -0.18728,0.48918 m 0,0 c -0.0618,0.16305 -0.12145,0.32666 -0.18062,0.49039 m 0,0 c -0.0597,0.16325 -0.11719,0.32747 -0.17404,0.49163 m 0,0 c -0.0576,0.16369 -0.11272,0.32826 -0.1676,0.49269 m 0,0 c -0.0547,0.16435 -0.10847,0.32896 -0.16107,0.49379 m 0,0 c -0.0527,0.16487 -0.10405,0.32978 -0.15449,0.49484 m 0,0 c -0.0505,0.1652 -0.0998,0.33042 -0.14802,0.4959 m 0,0 c -0.0483,0.16527 -0.0954,0.33102 -0.14167,0.49674 m 0,0 c -0.0462,0.16583 -0.0911,0.33152 -0.13509,0.49755 m 0,0 c -0.044,0.16614 -0.0869,0.33223 -0.12864,0.49844 m 0,0 c -0.0418,0.16626 -0.0826,0.33264 -0.12235,0.49911 m 0,0 c -0.0398,0.16657 -0.0783,0.33315 -0.11591,0.49991 m 0,0 c -0.0376,0.16667 -0.074,0.33353 -0.10941,0.50046 m 0,0 c -0.0355,0.16718 -0.0698,0.33401 -0.10321,0.50111 m 0,0 c -0.0334,0.16737 -0.0656,0.33427 -0.0968,0.5015 m 0,0 c -0.0314,0.16756 -0.0614,0.33468 -0.0905,0.50217 m 0,0 c -0.0294,0.1677 -0.0571,0.33495 -0.084,0.50247 m 0,0 c -0.027,0.1677 -0.053,0.33522 -0.0778,0.50293 m 0,0 c -0.025,0.16787 -0.0487,0.33539 -0.0715,0.5032 m 0,0 c -0.0229,0.16799 -0.0446,0.33556 -0.0651,0.50345 m 0,0 c -0.0208,0.16816 -0.0403,0.33579 -0.059,0.50358 m 0.60938,12.98262 c 0.0339,0.16242 0.0682,0.32555 0.10384,0.48799 m 0,0 c 0.0356,0.16234 0.0721,0.32482 0.10961,0.48668 m 0,0 c 0.0376,0.16158 0.0759,0.32381 0.11533,0.48535 m 0,0 c 0.0396,0.16127 0.0797,0.32286 0.12119,0.48373 m 0,0 c 0.0414,0.16079 0.0835,0.32224 0.1269,0.48233 m 0,0 c 0.0437,0.15976 0.0872,0.32109 0.1326,0.48076 m 0,0 c 0.0457,0.1592 0.091,0.31993 0.13836,0.47912 m 0,0 c 0.0474,0.15866 0.095,0.3189 0.14405,0.47739 m 0,0 c 0.0492,0.15834 0.0985,0.31801 0.14973,0.47569 m 0,0 c 0.0511,0.1578 0.10227,0.31681 0.15539,0.47394 m 0,0 c 0.0531,0.15688 0.10623,0.31549 0.16107,0.47199 m 0,0 c 0.0548,0.15665 0.10988,0.31432 0.16663,0.47022 m 0,0 c 0.057,0.15576 0.11366,0.31282 0.17237,0.46809 m 0,0 c 0.0586,0.15521 0.11727,0.31201 0.1779,0.46617 m 0,0 c 0.0604,0.1546 0.12125,0.31006 0.18353,0.46407 m 0,0 c 0.0623,0.15382 0.12492,0.30853 0.18906,0.46195 m 0,0 c 0.0642,0.15294 0.12882,0.30706 0.19463,0.45978 m 0,0 c 0.066,0.15232 0.13296,0.30467 0.20016,0.45755 m 0,0 c 0.0679,0.15177 0.13647,0.30335 0.20571,0.45518 m 0,0 c 0.0698,0.1509 0.14012,0.30185 0.21117,0.45294 m 0,0 c 0.0716,0.15027 0.14385,0.30033 0.21665,0.45056 m 0,0 c 0.0734,0.14936 0.14737,0.29878 0.22216,0.448 m 0,0 c 0.0751,0.14872 0.15107,0.29692 0.22779,0.44521 m 0,0 c 0.0769,0.14788 0.15465,0.29545 0.23329,0.44248 m 0,0 c 0.0786,0.14695 0.15819,0.29386 0.2387,0.43994 m 0,0 c 0.0805,0.14606 0.16176,0.29203 0.24394,0.43753 m 0,0 c 0.0824,0.14515 0.16545,0.29012 0.24941,0.43464 m 0,0 c 0.0842,0.1442 0.16889,0.28854 0.25466,0.43212 m 0,0 c 0.0861,0.14306 0.17243,0.28669 0.25995,0.42936 m 0,0 c 0.0876,0.14237 0.17601,0.28476 0.26531,0.42642 m 0,0 c 0.0893,0.14158 0.1795,0.28293 0.27056,0.42364 m 0,0 c 0.091,0.14061 0.18298,0.28102 0.2758,0.42075 m 0,0 c 0.0928,0.13944 0.18645,0.27908 0.28097,0.41789 m 0,0 c 0.0946,0.13871 0.18991,0.27711 0.28626,0.41476 m 0,0 c 0.0965,0.13744 0.1935,0.27485 0.29142,0.41173 m 0,0 c 0.0981,0.13654 0.19688,0.27295 0.29667,0.40854 m 0,0 c 0.0999,0.13525 0.20031,0.27082 0.30218,0.4047 m 0,0 c 0.10162,0.13422 0.20373,0.26872 0.3079,0.40038 m 0,0 c 0.1033,0.13331 0.20717,0.26652 0.31302,0.39717 m 0,0 c 0.1051,0.132 0.21061,0.26425 0.31809,0.39389 m 0,0 c 0.10662,0.13105 0.21444,0.26122 0.32329,0.39032 m 0,0 c 0.10851,0.1298 0.2178,0.25898 0.3284,0.38681 m 0,0 c 0.11012,0.12887 0.22168,0.25574 0.33337,0.38349 m 0,0 c 0.11188,0.12754 0.22508,0.25331 0.33847,0.37987 m 0,0 c 0.11361,0.1262 0.22853,0.25074 0.34349,0.37623 m 0,0 c 0.11524,0.12503 0.23183,0.24842 0.34849,0.37261 m 0,0 c 0.11695,0.12369 0.23518,0.24592 0.35342,0.369 m 0,0 c 0.11859,0.12242 0.23856,0.24331 0.35853,0.36502 m 0,0 c 0.12024,0.12115 0.24185,0.24077 0.36341,0.36132 m 0.36838,0.35739 c 0.12425,0.11721 0.2485,0.2355 0.37335,0.35338 m 0.37917,0.34774 c 0.12726,0.11535 0.25508,0.23007 0.38407,0.34368 m 0.38896,0.33957 c 0.13107,0.11144 0.26168,0.22442 0.39396,0.33512 m 0,0 c 0.13267,0.11013 0.26479,0.22189 0.3987,0.33115 m 0.40354,0.32683 c 0.13572,0.10747 0.27123,0.21615 0.4084,0.32249 m 0.41326,0.31794 c 0.13921,0.10395 0.27782,0.20989 0.41812,0.31337 m 0.42282,0.30897 c 0.14169,0.10218 0.28445,0.2034 0.42768,0.30427 m 0.43247,0.29956 c 0.14549,0.098 0.29131,0.19621 0.43707,0.29509 m 0.44236,0.28932 c 0.148,0.0962 0.29751,0.19006 0.44724,0.28416 m 0,0 c 0.14982,0.0941 0.30117,0.18584 0.45201,0.2792 m 0.45698,0.27372 c 0.1536,0.0896 0.30719,0.17962 0.46112,0.26971 m 0,0 c 0.15407,0.0898 0.30938,0.17794 0.46524,0.26561 m 0,0 c 0.15601,0.0874 0.312869,0.17382 0.470409,0.25953 m 0,0 c 0.15754,0.0857 0.3154,0.17028 0.47344,0.25397 m 0,0 c 0.15812,0.0835 0.31641,0.16614 0.47453,0.24856 m 0,0 c 0.15911,0.0806 0.31816,0.1606 0.47691,0.24062 m 0,0 c 0.15865,0.0803 0.31855,0.15757 0.47808,0.23498 m 0,0 c 0.15964,0.0773 0.32013,0.15218 0.47993,0.22783 m 0,0 c 0.16035,0.0747 0.32039,0.14921 0.48138,0.22142 m 0,0 c 0.16121,0.072 0.32197,0.14379 0.48337,0.21396 m 0,0 c 0.16066,0.0717 0.32258,0.14006 0.48513,0.20675 m 0,0 c 0.1614,0.069 0.32358,0.13556 0.48654,0.20019 m 0,0 c 0.16203,0.0662 0.32455,0.13104 0.48778,0.19377 m 0,0 c 0.16274,0.0634 0.32606,0.1255 0.4891,0.18718 m 0,0 c 0.16219,0.0631 0.32604,0.12271 0.49024,0.18081 m 0,0 c 0.16292,0.0604 0.32765,0.11687 0.49149,0.17417 m 0,0 c 0.16361,0.0577 0.32827,0.11277 0.4925,0.16787 m 0,0 c 0.16395,0.0556 0.32908,0.10828 0.49362,0.16128 m 0,0 c 0.16424,0.0536 0.32964,0.10414 0.49461,0.15484 m 0,0 c 0.16451,0.0515 0.33031,0.0998 0.49536,0.14874 m 0,0 c 0.16482,0.0494 0.33086,0.0957 0.49643,0.14203 m 0,0 c 0.16531,0.0469 0.33141,0.0914 0.49719,0.13575 m 0,0 c 0.16581,0.0444 0.33196,0.0871 0.49831,0.12874 m 0,0 c 0.16602,0.0423 0.33227,0.0832 0.49912,0.1222 m 0,0 c 0.1663,0.0399 0.33296,0.0786 0.50017,0.11518 m 0,0 c 0.16619,0.0384 0.33321,0.0746 0.50077,0.10885 m 0,0 c 0.16692,0.0353 0.33368,0.0702 0.50123,0.10269 m 0,0 c 0.16721,0.0331 0.33408,0.066 0.50179,0.0963 m 0,0 c 0.16738,0.031 0.33426,0.062 0.50215,0.0902 m 0,0 c 0.16764,0.0287 0.33463,0.0576 0.50248,0.084 m 0,0 c 0.16757,0.027 0.33485,0.0535 0.50278,0.0778 m 0,0 c 0.16773,0.0248 0.33499,0.0494 0.50308,0.0715 m 0,0 c 0.16802,0.0225 0.33522,0.0451 0.50327,0.0654 m 0,0 c 0.16783,0.0206 0.33557,0.0406 0.50333,0.0594 m 0,0 c 0.16796,0.0183 0.33606,0.0357 0.5035,0.0531 m 0,0 c 0.16789,0.0165 0.33611,0.0315 0.50353,0.047 m 0,0 c 0.16798,0.0143 0.33622,0.0273 0.50341,0.041 m 0,0 c 0.16791,0.0124 0.33624,0.0231 0.50405,0.0336 m 0,0 c 0.16792,0.0103 0.33619,0.019 0.50373,0.0279 m 0,0 c 0.16791,0.008 0.33608,0.0149 0.50404,0.0209 m 0,0 c 0.16788,0.006 0.33583,0.0111 0.50368,0.0151 m 0,0 c 0.16782,0.004 0.33573,0.007 0.50351,0.009 m 0,0 c 0.16756,0.002 0.33545,0.003 0.50308,0.003 m 0,0 c 0.16743,2.6e-4 0.33518,-9.5e-4 0.50264,-0.003 m 0,0 c 0.16714,-0.001 0.33489,-0.005 0.50217,-0.009 m 0,0 c 0.16701,-0.003 0.33455,-0.009 0.5017,-0.015 m 19.48377,-5.62777 c 0.14475,-0.0845 0.28846,-0.16893 0.43205,-0.25472 m 0,0 c 0.1439,-0.0863 0.28663,-0.17239 0.42932,-0.26003 m 0,0 c 0.14297,-0.0881 0.28475,-0.17607 0.42632,-0.26544 m 0,0 c 0.1421,-0.0899 0.28275,-0.17955 0.4234,-0.27074 m 0,0 c 0.14071,-0.0916 0.28077,-0.18303 0.42044,-0.27606 m 0,0 c 0.13975,-0.0933 0.2787,-0.18669 0.41727,-0.28132 m 0,0 c 0.13878,-0.0951 0.27668,-0.19016 0.41427,-0.28659 m 0,0 c 0.13783,-0.0969 0.27454,-0.19371 0.41102,-0.29183 m 0,0 c 0.13666,-0.0985 0.27241,-0.19723 0.40778,-0.29726 m 0,0 c 0.1355,-0.10036 0.27025,-0.2006 0.4045,-0.30224 m 0,0 c 0.1344,-0.10202 0.26798,-0.20422 0.40114,-0.30759 m 0,0 c 0.13333,-0.10378 0.26578,-0.20764 0.39783,-0.31275 m 0,0 c 0.13223,-0.10541 0.2634,-0.21116 0.39433,-0.3179 m 0,0 c 0.13095,-0.10698 0.26113,-0.2145 0.39074,-0.32311 m 0,0 c 0.12984,-0.1089 0.25877,-0.21801 0.38731,-0.32827 m 0,0 c 0.12862,-0.11046 0.25633,-0.22135 0.38362,-0.3333 m 0,0 c 0.12741,-0.11215 0.25396,-0.22479 0.37992,-0.33853 m 0,0 c 0.12618,-0.11371 0.25138,-0.22818 0.37624,-0.34352 m 0,0 c 0.12494,-0.11573 0.24901,-0.2316 0.37249,-0.34874 m 0,0 c 0.12352,-0.11711 0.24626,-0.23498 0.36854,-0.35373 m 0,0 c 0.12238,-0.11895 0.24376,-0.23831 0.36474,-0.35869 m 0,0 c 0.12115,-0.12061 0.24111,-0.24174 0.36079,-0.36379 m 0,0 c 0.11951,-0.12211 0.23855,-0.24495 0.35674,-0.36886 m 0,0 c 0.11816,-0.12378 0.23573,-0.24842 0.35261,-0.37385 m 0,0 c 0.11685,-0.12544 0.23309,-0.25163 0.34858,-0.37874 m 0,0 c 0.1156,-0.12714 0.23021,-0.25506 0.34435,-0.38374 m 0,0 c 0.11416,-0.12884 0.22745,-0.25839 0.34007,-0.38874 m 0,0 c 0.11266,-0.13063 0.22466,-0.26153 0.33596,-0.39366 m 0,0 c 0.11118,-0.13203 0.22163,-0.26485 0.33143,-0.3985 m 0,0 c 0.10992,-0.13381 0.21895,-0.26817 0.32711,-0.40347 m 0,0 c 0.10836,-0.13523 0.21594,-0.27143 0.32266,-0.40843 m 0,0 c 0.10621,-0.13729 0.21295,-0.27463 0.31822,-0.41315 m 0,0 c 0.10479,-0.13876 0.20995,-0.27791 0.3136,-0.41809 m 0,0 c 0.10342,-0.14049 0.20678,-0.28114 0.30891,-0.42302 m 0,0 c 0.10173,-0.14197 0.2036,-0.28426 0.3042,-0.4277 m 0,0 c 0.10034,-0.14338 0.20048,-0.28756 0.29969,-0.43249 m 0,0 c 0.0987,-0.14514 0.19731,-0.2908 0.29486,-0.43724 m 0,0 c 0.097,-0.14685 0.19421,-0.29395 0.28993,-0.4421 m 0,0 c 0.0955,-0.14823 0.19045,-0.29735 0.28498,-0.44692 m 0,0 c 0.0938,-0.14975 0.18705,-0.30051 0.28016,-0.45153 m 0,0 c 0.0922,-0.15137 0.18393,-0.30361 0.27476,-0.45654 m 0,0 c 0.0906,-0.15274 0.18052,-0.30676 0.26964,-0.46125 m 0,0 c 0.0889,-0.15427 0.17731,-0.30979 0.26469,-0.46577 m 0,0 c 0.0873,-0.15588 0.17418,-0.31265 0.25993,-0.47028"
         style="display:inline;opacity:0.98;fill:#999999;fill-opacity:1;stroke:#000000;stroke-width:1.99971;stroke-linecap:butt;stroke-linejoin:miter;stroke-miterlimit:7.9;stroke-dasharray:none;stroke-dashoffset:0;stroke-opacity:0.249871;paint-order:markers stroke fill" />
      <path
         id="path840-0-3-6"
         d="m 147.66277,-173.22183 c 0.0652,-0.11987 0.12947,-0.24014 0.19305,-0.36052 m 0,0 c 0.0635,-0.12024 0.12607,-0.24102 0.18817,-0.36165 m 0,0 c 0.0617,-0.12079 0.12298,-0.24184 0.18325,-0.36304 m 0,0 c 0.06,-0.12116 0.11981,-0.24258 0.17827,-0.36417 m 0,0 c 0.0586,-0.12151 0.11635,-0.24341 0.17275,-0.36569 m 0.16771,-0.36679 c 0.0549,-0.1224 0.10937,-0.24498 0.1627,-0.36807 m 0.1575,-0.3692 c 0.0517,-0.12307 0.1024,-0.24659 0.15235,-0.3702 m 0.14765,-0.37128 c 0.0485,-0.12372 0.0959,-0.24793 0.14252,-0.37225 m 0.13748,-0.37317 c 0.0455,-0.12428 0.0891,-0.24924 0.13239,-0.3742 m 0.12754,-0.37493 c 0.0416,-0.12511 0.0824,-0.25037 0.12261,-0.37579 m 0,0 c 0.0403,-0.12545 0.0791,-0.25096 0.11768,-0.37658 m 0,0 c 0.0384,-0.1257 0.0758,-0.25142 0.11272,-0.37744 m 0.10768,-0.37801 c 0.0346,-0.12623 0.0696,-0.25225 0.1027,-0.37865 m 0,0 c 0.0333,-0.12642 0.0661,-0.25284 0.0979,-0.37934 m 0,0 c 0.0318,-0.12656 0.0627,-0.25317 0.0932,-0.37984 m 0,0 c 0.0304,-0.12671 0.059,-0.25354 0.0882,-0.38041 m 0,0 c 0.0289,-0.12687 0.0562,-0.25384 0.0831,-0.38096 m 0,0 c 0.0264,-0.12703 0.0527,-0.25414 0.0783,-0.3813 m 0,0 c 0.0252,-0.1274 0.0501,-0.25439 0.0741,-0.38171 m 0,0 c 0.0235,-0.1273 0.0471,-0.25468 0.0691,-0.38214 m 0,0 c 0.0218,-0.12745 0.0437,-0.25491 0.064,-0.38244 m 0,0 c 0.0208,-0.12765 0.0404,-0.25502 0.0591,-0.38268 m 0,0 c 0.02,-0.12777 0.0369,-0.25528 0.0544,-0.38298 m 0,0 c 0.0187,-0.12786 0.034,-0.25537 0.05,-0.38311 m 0,0 c 0.016,-0.12797 0.0309,-0.25548 0.0449,-0.38326 m 0,0 c 0.013,-0.12814 0.0276,-0.25561 0.0405,-0.38339 m 0,0 c 0.009,-0.1281 0.0244,-0.25566 0.0352,-0.38345 m 0,0 c 0.009,-0.12816 0.0216,-0.25573 0.0306,-0.38354 m 0,0 c 0.005,-0.12798 0.0192,-0.25557 0.0252,-0.38348 m 0,0 c 0.005,-0.12812 0.0136,-0.25559 0.0214,-0.38336 m 0,0 c 0.002,-0.12808 0.009,-0.25553 0.0178,-0.38335 m 0,0 c 0.002,-0.12793 0.005,-0.25544 0.009,-0.38316 m 0,0 c 0.002,-0.12799 0.002,-0.25538 0.002,-0.38295 m 0,0 c 9.5e-4,-0.1279 0.002,-0.25519 0.002,-0.38275 m 0,0 c 4.4e-4,-0.12792 -5.1e-4,-0.25508 -0.002,-0.38244 m 0,0 c -9.5e-4,-0.12791 -0.002,-0.25481 -0.002,-0.38218 m 0,0 c -0.002,-0.12776 -0.002,-0.25462 -0.009,-0.38176 m 0,0 c -0.002,-0.12767 -0.005,-0.2544 -0.0155,-0.38143 m 0,0 c -0.002,-0.12744 -0.012,-0.25403 -0.0209,-0.38099 m 0,0 c -0.002,-0.12734 -0.0167,-0.25355 -0.025,-0.38044 m 0,0 c -0.005,-0.12728 -0.0201,-0.25314 -0.0297,-0.37999 m 0,0 c -0.008,-0.12713 -0.022,-0.25275 -0.0343,-0.3794 m 0,0 c -0.009,-0.12695 -0.0246,-0.25244 -0.0388,-0.37881 m 0,0 c -0.0125,-0.12673 -0.0281,-0.2519 -0.0438,-0.37817 m 0,0 c -0.0133,-0.12637 -0.031,-0.25154 -0.0478,-0.37746 m -2.46713,-8.74174 c -0.0512,-0.11563 -0.10372,-0.23085 -0.15656,-0.3464 m 0,0 c -0.0525,-0.11492 -0.10652,-0.22972 -0.16076,-0.3447 m 0,0 c -0.0543,-0.11437 -0.10932,-0.22859 -0.16482,-0.34288 m 0,0 c -0.0557,-0.11377 -0.11215,-0.22738 -0.16907,-0.34094 m 0,0 c -0.0571,-0.11316 -0.11505,-0.22601 -0.17342,-0.33885 m 0,0 c -0.0581,-0.1125 -0.11765,-0.2249 -0.17749,-0.33677 m 0,0 c -0.0598,-0.11173 -0.12056,-0.22362 -0.18167,-0.33482 m 0,0 c -0.0613,-0.11102 -0.12317,-0.22227 -0.18576,-0.33295 m 0,0 c -0.0625,-0.11046 -0.12573,-0.22099 -0.18981,-0.3308 m 0,0 c -0.0639,-0.10992 -0.12848,-0.2196 -0.19375,-0.32888 m 0,0 c -0.0656,-0.10914 -0.13123,-0.21818 -0.19779,-0.32673 m 0,0 c -0.067,-0.1082 -0.1339,-0.21673 -0.20183,-0.32454 m 0,0 c -0.068,-0.10772 -0.13663,-0.21529 -0.2059,-0.32244 m 0,0 c -0.0693,-0.10703 -0.13919,-0.21383 -0.20988,-0.32017 m 0,0 c -0.0709,-0.10614 -0.14193,-0.21238 -0.2138,-0.31805 m 0,0 c -0.0721,-0.10533 -0.14456,-0.21088 -0.21789,-0.3156 m 0,0 c -0.0736,-0.10451 -0.14728,-0.20922 -0.22179,-0.31336 m 0,0 c -0.0753,-0.10376 -0.1498,-0.20776 -0.22593,-0.31059 m 0,0 c -0.0758,-0.10285 -0.15249,-0.2061 -0.23025,-0.3076 m 0,0 c -0.0771,-0.10194 -0.15503,-0.20449 -0.23425,-0.30471 m 0,0 c -0.0786,-0.10123 -0.15788,-0.20262 -0.23833,-0.30224 m 0,0 c -0.0797,-0.10044 -0.16053,-0.20074 -0.24215,-0.29959 m -0.246,-0.29708 c -0.0824,-0.0988 -0.16587,-0.19691 -0.2498,-0.29458 m 0,0 c -0.0838,-0.0981 -0.16873,-0.19459 -0.25378,-0.29181 m 0,0 c -0.0851,-0.0971 -0.17126,-0.19286 -0.25753,-0.28914 m -0.26142,-0.28633 c -0.0875,-0.0954 -0.17643,-0.18906 -0.26521,-0.28357 m -0.26891,-0.2808 c -0.0905,-0.0933 -0.1816,-0.18516 -0.27289,-0.27778 m -0.27649,-0.27502 c -0.0928,-0.0913 -0.18669,-0.18118 -0.28036,-0.27199 m -0.28412,-0.26894 c -0.0962,-0.0877 -0.19152,-0.17734 -0.28844,-0.26481 m -0.29226,-0.26156 c -0.0985,-0.0858 -0.19655,-0.17312 -0.29602,-0.25841 m -0.29979,-0.255 c -0.10095,-0.0837 -0.2015,-0.16888 -0.30347,-0.25205 m -0.30722,-0.24871 c -0.10318,-0.0816 -0.2064,-0.16449 -0.31077,-0.24542 m -0.31449,-0.24203 c -0.10591,-0.0791 -0.21135,-0.15982 -0.31816,-0.23856 m -0.32206,-0.23513 c -0.10775,-0.0776 -0.21648,-0.15481 -0.32545,-0.23164 m 0,0 c -0.10919,-0.0759 -0.21924,-0.15175 -0.32918,-0.22785 m -0.33288,-0.22413 c -0.11213,-0.0732 -0.22408,-0.14697 -0.33655,-0.2204 m -0.34055,-0.21606 c -0.11408,-0.0717 -0.22919,-0.14141 -0.34401,-0.21247 m 0,0 c -0.11549,-0.0701 -0.23096,-0.14002 -0.34775,-0.2083 m 0,0 c -0.11701,-0.0683 -0.23379,-0.13672 -0.35092,-0.2053 m 0,0 c -0.11738,-0.0685 -0.23546,-0.1354 -0.35407,-0.20213 m 0,0 c -0.11882,-0.0667 -0.23813,-0.13228 -0.35802,-0.19752 m 0,0 c -0.1199,-0.0655 -0.23991,-0.12983 -0.36033,-0.19328 m 0,0 c -0.1204,-0.0638 -0.24081,-0.12643 -0.36112,-0.18915 m 0,0 c -0.12121,-0.0611 -0.24213,-0.12229 -0.36297,-0.18311 m 0,0 c -0.12082,-0.0609 -0.24243,-0.11997 -0.36383,-0.17885 m 0,0 c -0.12157,-0.0587 -0.24362,-0.11592 -0.36524,-0.17338 m 0,0 c -0.12212,-0.0567 -0.24382,-0.11358 -0.36634,-0.16851 m 0,0 c -0.1227,-0.0546 -0.24502,-0.10935 -0.36786,-0.16283 m 0,0 c -0.12232,-0.0544 -0.24551,-0.10646 -0.36914,-0.15748 m 0,0 c -0.12278,-0.0524 -0.24644,-0.1027 -0.37027,-0.15235 m 0,0 c -0.1233,-0.0504 -0.24719,-0.0997 -0.37122,-0.1475 m 0,0 c -0.12381,-0.0484 -0.2479,-0.096 -0.37216,-0.14242 m 0,0 c -0.12347,-0.0481 -0.24878,-0.0924 -0.3731,-0.13762 m 0,0 c -0.12402,-0.0461 -0.2494,-0.0889 -0.374,-0.13268 m 0,0 c -0.1245,-0.0439 -0.24981,-0.0856 -0.37488,-0.12762 m 0,0 c -0.12476,-0.0423 -0.25044,-0.0823 -0.37566,-0.12276 m 0,0 c -0.12501,-0.0409 -0.2509,-0.0793 -0.37641,-0.11793 m 0,0 c -0.12521,-0.0392 -0.25139,-0.0759 -0.37698,-0.11326 m 0,0 c -0.12537,-0.0377 -0.25182,-0.0726 -0.37773,-0.10802 m 0,0 c -0.12591,-0.0353 -0.25221,-0.0696 -0.37841,-0.10324 m 0,0 c -0.12629,-0.0335 -0.25261,-0.0664 -0.37923,-0.098 m 0,0 c -0.12596,-0.0329 -0.25285,-0.0635 -0.38004,-0.0927 m 0,0 c -0.12632,-0.0308 -0.25338,-0.0597 -0.38063,-0.0875 m 0,0 c -0.12653,-0.0291 -0.25372,-0.0565 -0.38116,-0.0827 m 0,0 c -0.12697,-0.0268 -0.25394,-0.0534 -0.38144,-0.0782 m 0,0 c -0.12726,-0.0252 -0.25423,-0.0504 -0.38185,-0.0735 m 0,0 c -0.12736,-0.0239 -0.25439,-0.0473 -0.38215,-0.0688 m 0,0 c -0.12754,-0.0221 -0.25471,-0.0438 -0.38244,-0.064 m 0,0 c -0.12753,-0.0207 -0.25483,-0.0408 -0.38266,-0.059 m 0,0 c -0.12769,-0.0188 -0.2549,-0.0376 -0.38281,-0.0543 m -9.15096,0.0989 c -0.12502,0.0195 -0.24989,0.0397 -0.37509,0.0612 m 0,0 c -0.12461,0.021 -0.2494,0.0426 -0.37424,0.0659 m 0,0 c -0.12416,0.0223 -0.24861,0.0458 -0.37321,0.0703 m 0,0 c -0.12409,0.0241 -0.24818,0.0488 -0.37236,0.0749 m 0,0 c -0.12379,0.0253 -0.24802,0.0521 -0.37142,0.079 m 0,0 c -0.12346,0.0263 -0.2473,0.0552 -0.37038,0.0834 m 0,0 c -0.12314,0.028 -0.24663,0.0582 -0.36934,0.0877 m 0,0 c -0.12265,0.0295 -0.24598,0.0612 -0.36817,0.0923 m 0,0 c -0.12238,0.0311 -0.24517,0.0642 -0.36707,0.0968 m 0,0 c -0.12198,0.0325 -0.24432,0.0672 -0.36583,0.10093 m 0,0 c -0.12151,0.0336 -0.24344,0.0698 -0.36461,0.10524 m 0,0 c -0.12114,0.0351 -0.24256,0.0726 -0.36332,0.10949 m 0,0 c -0.1207,0.0365 -0.24165,0.0755 -0.362,0.114 m 0,0 c -0.12037,0.0386 -0.24081,0.0784 -0.36064,0.11836 m 0,0 c -0.11972,0.0398 -0.23983,0.0812 -0.35918,0.12262 m 0,0 c -0.11976,0.0419 -0.23885,0.084 -0.35784,0.12698 m 0,0 c -0.11893,0.0429 -0.23785,0.0869 -0.35629,0.13117 m 0,0 c -0.11845,0.0442 -0.23673,0.0896 -0.35473,0.13539 m 0,0 c -0.11816,0.0458 -0.23575,0.0925 -0.35321,0.13974 m 0,0 c -0.11763,0.0475 -0.23468,0.0954 -0.35154,0.14393 m -1.04454,0.45711 c -0.11561,0.0534 -0.22994,0.10628 -0.34467,0.16084 m 0,0 c -0.11491,0.0544 -0.2288,0.10902 -0.34287,0.16493 m 0,0 c -0.11434,0.0562 -0.22751,0.11166 -0.34096,0.16911 m 0,0 c -0.11373,0.0575 -0.22611,0.11444 -0.33905,0.17331 m -0.33718,0.17742 c -0.11225,0.06 -0.22351,0.11997 -0.3351,0.18152 m -0.33305,0.18564 c -0.11069,0.0631 -0.221,0.12573 -0.331,0.18974 m -0.32875,0.19373 c -0.10935,0.0658 -0.21816,0.13123 -0.3267,0.19784 m 0,0 c -0.10869,0.0673 -0.21671,0.13396 -0.32447,0.20203 m -0.32229,0.20605 c -0.10707,0.0698 -0.21371,0.13933 -0.31995,0.21005 m 0,0 c -0.1063,0.0712 -0.21212,0.14211 -0.31756,0.21414 m 0,0 c -0.10552,0.0724 -0.2106,0.14478 -0.31529,0.21809 m -0.31275,0.22214 c -0.10398,0.0752 -0.20732,0.15007 -0.31031,0.22612 m -0.30786,0.23009 c -0.10201,0.0775 -0.20395,0.15542 -0.30532,0.23412 m -0.3027,0.23798 c -0.10062,0.0799 -0.200509,0.16071 -0.300149,0.24199 m 0,0 c -0.0999,0.0813 -0.19873,0.16325 -0.29738,0.24587 m -0.29472,0.24978 c -0.0979,0.084 -0.19507,0.1685 -0.29196,0.2537 m -0.28912,0.25763 c -0.0962,0.0864 -0.19135,0.17368 -0.28634,0.26144 m -0.28347,0.26529 c -0.0942,0.0893 -0.18744,0.17881 -0.28046,0.26917 m -0.27756,0.273 c -0.0923,0.0921 -0.18351,0.18396 -0.27462,0.27689 m 0,0 c -0.0913,0.0932 -0.18149,0.18649 -0.27148,0.28071 m 0,0 c -0.0901,0.0943 -0.17937,0.18902 -0.26834,0.28448 m 0,0 c -0.089,0.0956 -0.17736,0.19155 -0.26528,0.28828 m 0,0 c -0.0877,0.0969 -0.17517,0.19408 -0.26207,0.29203 m 0,0 c -0.0867,0.0981 -0.17312,0.19664 -0.25879,0.29582 m 0,0 c -0.0856,0.0997 -0.17101,0.19911 -0.25566,0.29969 m 0,0 c -0.0844,0.10047 -0.16873,0.20156 -0.25226,0.30327 m 0,0 c -0.0834,0.10166 -0.16657,0.20407 -0.24894,0.30709 m 0,0 c -0.0824,0.10283 -0.16428,0.20658 -0.2455,0.31079 m 0,0 c -0.0807,0.10445 -0.16203,0.20906 -0.2422,0.31446 m 0,0 c -0.0795,0.10553 -0.15967,0.21152 -0.23865,0.31813 m 0,0 c -0.0786,0.10689 -0.15744,0.21397 -0.23516,0.32195 m 0,0 c -0.0772,0.10792 -0.15496,0.21633 -0.23156,0.32557 m 0,0 c -0.0758,0.10897 -0.15259,0.21877 -0.22801,0.32904 m 0,0 c -0.0753,0.11018 -0.15018,0.22131 -0.22436,0.33282 m 0,0 c -0.0741,0.11163 -0.14774,0.22367 -0.2207,0.3365 m 0,0 c -0.0728,0.1126 -0.14489,0.22631 -0.21689,0.34003 m 0,0 c -0.0716,0.11408 -0.14252,0.22864 -0.21325,0.34367 m 0,0 c -0.0702,0.11519 -0.13999,0.23103 -0.20906,0.34737 m 0,0 c -0.0692,0.11638 -0.13745,0.23348 -0.20528,0.35106 m 0,0 c -0.0677,0.11747 -0.13495,0.2357 -0.20151,0.3544 m 0,0 c -0.0667,0.11874 -0.13239,0.23811 -0.19762,0.35801 m 0,0 c -0.0654,0.11986 -0.12963,0.24005 -0.19322,0.36041 m 0,0 c -0.0635,0.12027 -0.12628,0.24098 -0.1881,0.36173 m 0,0 c -0.0617,0.12076 -0.12284,0.24185 -0.18318,0.363 m 0,0 c -0.06,0.12122 -0.11968,0.24265 -0.17832,0.36421 m 0,0 c -0.0586,0.12151 -0.1162,0.24346 -0.17267,0.36564 m 0,0 c -0.0568,0.12196 -0.11301,0.24416 -0.16771,0.36691 m 0,0 c -0.0551,0.1224 -0.10956,0.24497 -0.1626,0.36807 m 0,0 c -0.0534,0.12272 -0.10588,0.24592 -0.15754,0.36907 m 0,0 c -0.0519,0.12293 -0.10258,0.24665 -0.15247,0.37023 m 0,0 c -0.0502,0.12343 -0.099,0.24742 -0.14747,0.37132 m 0,0 c -0.0487,0.12365 -0.0959,0.24795 -0.14255,0.37228 m 0,0 c -0.047,0.12405 -0.0926,0.24854 -0.13754,0.37317 m 0,0 c -0.0454,0.12424 -0.0892,0.24924 -0.13251,0.37415 m 0,0 c -0.0438,0.12459 -0.0858,0.24985 -0.1276,0.37498 m 0,0 c -0.0415,0.12509 -0.0824,0.25037 -0.12247,0.37582 m 0,0 c -0.0401,0.12545 -0.0793,0.25097 -0.11761,0.37657 m 0,0 c -0.0383,0.12573 -0.0759,0.25147 -0.11256,0.37742 m 0,0 c -0.0366,0.12573 -0.0725,0.25186 -0.1077,0.37799 m 0,0 c -0.0351,0.1262 -0.0694,0.25228 -0.10279,0.37864 m 0,0 c -0.0335,0.12645 -0.066,0.25287 -0.0978,0.37934 m 0,0 c -0.0318,0.12654 -0.0628,0.25316 -0.0931,0.37984 m 0,0 c -0.0304,0.12677 -0.0598,0.25355 -0.0884,0.38046 m 0,0 c -0.0286,0.12685 -0.0564,0.25385 -0.0832,0.38091 m 0,0 c -0.0271,0.12721 -0.0532,0.25417 -0.0786,0.38135 m 0,0 c -0.0252,0.12738 -0.0496,0.25439 -0.0734,0.38166 m 0,0 c -0.0239,0.12751 -0.0469,0.25469 -0.069,0.38218 m 0,0 c -0.0224,0.12763 -0.0435,0.2549 -0.0639,0.38238 m 0,0 c -0.0201,0.12764 -0.04,0.25511 -0.0589,0.38275 m 0,0 c -0.019,0.12775 -0.0371,0.25526 -0.0545,0.38296 m 0,0 c -0.0175,0.12786 -0.0339,0.2554 -0.0496,0.38316 m 0,0 c -0.0159,0.12798 -0.0307,0.25555 -0.0449,0.38324 m 0.46377,9.8803 c 0.0259,0.12361 0.052,0.24774 0.079,0.37136 m 0,0 c 0.0272,0.12357 0.0549,0.24722 0.0834,0.3704 m 0,0 c 0.0287,0.12299 0.0579,0.24641 0.0878,0.36937 m 0,0 c 0.0301,0.12275 0.0606,0.2457 0.0923,0.36813 m 0,0 c 0.0315,0.12241 0.0636,0.24524 0.0966,0.36706 m 0,0 c 0.0333,0.12166 0.0664,0.24438 0.10091,0.36588 m 0,0 c 0.0348,0.1213 0.0693,0.24348 0.1053,0.36462 m 0,0 c 0.0362,0.12086 0.0723,0.24272 0.10964,0.36334 m 0,0 c 0.0375,0.1206 0.075,0.24202 0.11395,0.36201 m 0,0 c 0.0389,0.12012 0.0778,0.2411 0.11825,0.3607 m 0,0 c 0.0403,0.11945 0.0809,0.24009 0.12259,0.35919 m 0,0 c 0.0416,0.11924 0.0836,0.23921 0.12683,0.35786 m 0,0 c 0.0433,0.1186 0.0865,0.23807 0.13117,0.35624 m 0,0 c 0.0447,0.11821 0.0892,0.23745 0.13539,0.35476 m 0,0 c 0.046,0.11775 0.0923,0.23599 0.13966,0.35319 m 0,0 c 0.0475,0.11716 0.0951,0.23479 0.1439,0.35157 m 0,0 c 0.049,0.11651 0.098,0.23366 0.14811,0.34991 m 0,0 c 0.0503,0.11604 0.10117,0.23187 0.15233,0.34822 m 0,0 c 0.0516,0.11562 0.10388,0.23086 0.15657,0.34639 m 0,0 c 0.053,0.11499 0.10662,0.22974 0.1607,0.34471 m 0,0 c 0.0543,0.11442 0.10946,0.22856 0.16489,0.3429 m 0,0 c 0.0558,0.11384 0.11214,0.22739 0.16906,0.34096 m 0,0 c 0.0569,0.11315 0.11504,0.22594 0.17336,0.33882 m 0,0 c 0.0583,0.11249 0.11776,0.22487 0.17756,0.33674 m 0,0 c 0.0596,0.11175 0.1205,0.22365 0.18165,0.33479 m 0,0 c 0.0611,0.11105 0.12314,0.22227 0.18564,0.33299 m 0,0 c 0.0625,0.11033 0.1259,0.22081 0.18981,0.3308 m 0,0 c 0.0642,0.10958 0.12854,0.21957 0.19381,0.32885 m 0,0 c 0.0657,0.10879 0.13123,0.21818 0.19783,0.32677 m 0,0 c 0.067,0.10828 0.13397,0.21671 0.20193,0.32451 m 0,0 c 0.0681,0.10769 0.13658,0.21531 0.2059,0.3224 m 0,0 c 0.0694,0.10689 0.13925,0.21388 0.20989,0.32021 m 0,0 c 0.0708,0.10605 0.1419,0.21238 0.21384,0.31804 m 0,0 c 0.0722,0.1054 0.14451,0.2109 0.21782,0.31564 m 0,0 c 0.0736,0.10448 0.14728,0.20919 0.2218,0.31336 m 0,0 c 0.0753,0.10382 0.14984,0.20771 0.22578,0.31091 m 0,0 c 0.0758,0.10274 0.15246,0.20611 0.22997,0.308 m 0,0 c 0.0773,0.10184 0.15505,0.20451 0.23433,0.30471 m 0,0 c 0.0785,0.10129 0.15768,0.20282 0.23823,0.30225 m 0,0 c 0.0798,0.10045 0.16028,0.20112 0.24207,0.29976 m 0,0 c 0.081,0.0999 0.16322,0.19882 0.24604,0.29706 m 0,0 c 0.0824,0.0988 0.16576,0.1971 0.24993,0.29439 m 0,0 c 0.0837,0.0981 0.16871,0.19462 0.2537,0.29184 m 0,0 c 0.085,0.0971 0.1713,0.19278 0.2576,0.28909 m 0,0 c 0.0863,0.0962 0.17392,0.19083 0.26141,0.28633 m 0,0 c 0.0875,0.0954 0.17644,0.18905 0.26522,0.28359 m 0,0 c 0.0891,0.0943 0.17898,0.18714 0.26896,0.28081 m 0,0 c 0.0905,0.0932 0.18155,0.18517 0.27287,0.27778 m 0,0 c 0.0917,0.0923 0.18404,0.18325 0.27656,0.27499 m 0.28037,0.272 c 0.0946,0.0893 0.18909,0.1792 0.28411,0.26892 m 0.28856,0.26465 c 0.0969,0.0876 0.19415,0.1751 0.29232,0.26156 m 0.29599,0.25844 c 0.0999,0.0847 0.19914,0.17078 0.29982,0.25503 m 0,0 c 0.10095,0.0838 0.20149,0.16887 0.30345,0.25201 m 0.307089,0.24872 c 0.10319,0.0817 0.20642,0.16451 0.31079,0.24545 m 0.31454,0.24197 c 0.10588,0.079 0.21144,0.15973 0.31819,0.23847 m 0.32179,0.23514 c 0.10774,0.0776 0.21648,0.15481 0.32547,0.23157 m 0.32913,0.22797 c 0.11062,0.0753 0.22171,0.14932 0.33263,0.22458 m 0.33666,0.22017 c 0.11248,0.0736 0.2264,0.14467 0.34038,0.21628 m 0,0 c 0.11406,0.0716 0.22919,0.14144 0.34397,0.21246 m 0.34779,0.20831 c 0.11701,0.0683 0.23379,0.13672 0.35093,0.20527 m 0,0 c 0.11736,0.0685 0.23546,0.13543 0.35407,0.20214 m 0,0 c 0.1188,0.0668 0.2381,0.13229 0.35801,0.19753 m 0,0 c 0.11998,0.0654 0.24002,0.12956 0.36028,0.19328 m 0,0 c 0.12046,0.0636 0.24083,0.12642 0.36116,0.18916 m 0,0 c 0.1212,0.061 0.24214,0.12227 0.36295,0.18311 m 0,0 c 0.12072,0.061 0.24244,0.11998 0.36383,0.17882 m 0,0 c 0.1216,0.0587 0.24363,0.11591 0.36524,0.1734 m 0,0 c 0.12212,0.0568 0.24385,0.11354 0.36637,0.16851 m 0,0 c 0.12273,0.0546 0.24503,0.10933 0.36784,0.16285 m 0,0 c 0.12235,0.0544 0.24551,0.10647 0.36923,0.15734 m 0,0 c 0.12286,0.0523 0.24625,0.10305 0.37027,0.15235 m 0,0 c 0.12333,0.0504 0.24699,0.0999 0.37121,0.14747 m 0,0 c 0.12389,0.0484 0.24816,0.0957 0.37224,0.14244 m 0,0 c 0.12345,0.0481 0.24812,0.0935 0.37309,0.13761 m 0,0 c 0.12399,0.0462 0.24935,0.0891 0.37405,0.13254 m 0,0 c 0.1245,0.0439 0.24983,0.0855 0.3748,0.12777 m 0,0 c 0.12478,0.0423 0.25045,0.0822 0.37566,0.12276 m 0,0 c 0.12499,0.0409 0.25089,0.0791 0.37642,0.11791 m 0,0 c 0.1252,0.0394 0.25138,0.0758 0.377,0.11318 m 0,0 c 0.12543,0.0375 0.2518,0.0729 0.37779,0.108 m 0,0 c 0.12583,0.0356 0.25222,0.0696 0.3784,0.10323 m 0,0 c 0.12619,0.0336 0.25264,0.0665 0.37922,0.098 m 0,0 c 0.12634,0.032 0.25286,0.0635 0.37986,0.0931 m 0,0 c 0.12657,0.0302 0.2534,0.0596 0.38066,0.0876 m 0,0 c 0.12645,0.0291 0.25358,0.0566 0.38109,0.0827 m 0,0 c 0.12705,0.0266 0.25396,0.0533 0.38148,0.078 m 0,0 c 0.12724,0.0253 0.25425,0.0503 0.38187,0.0736 m 0,0 c 0.12738,0.0238 0.25438,0.0473 0.38215,0.0688 m 0,0 c 0.12759,0.0221 0.25467,0.0438 0.38241,0.0641 m 0,0 c 0.12753,0.0207 0.25485,0.0409 0.38263,0.059 m 0,0 c 0.12765,0.0191 0.25494,0.0375 0.38287,0.0543 m 0,0 c 0.12786,0.0172 0.25511,0.0342 0.38303,0.0502 m 0,0 c 0.12771,0.0158 0.25535,0.0307 0.38305,0.0453 m 0,0 c 0.12781,0.014 0.25573,0.027 0.38317,0.0406 m 0,0 c 0.12779,0.0123 0.25579,0.0241 0.3832,0.0357 m 0,0 c 0.12784,0.008 0.2559,0.0208 0.38311,0.0311 m 0,0 c 0.1278,0.004 0.2559,0.0177 0.38361,0.0254 m 0,0 c 0.12779,0.002 0.25585,0.0146 0.38337,0.0213 m 0,0 c 0.12779,0.002 0.25574,0.008 0.38359,0.0161 m 0,0 c 0.12777,0.002 0.25559,0.004 0.38331,0.008 m 0,0 c 0.12774,0.002 0.25552,0.002 0.38321,0.002 m 0,0 c 0.1275,0.001 0.25529,0.002 0.38286,0.002 m 0,0 c 0.1274,2e-4 0.25508,-6e-4 0.38254,-0.002 m 0,0 c 0.12718,-7.2e-4 0.25484,-0.002 0.38216,-0.002 m 0,0 c 0.12711,-0.002 0.25461,-0.002 0.38181,-0.008 m 14.82795,-4.28293 c 0.11003,-0.0644 0.21954,-0.12857 0.32883,-0.19384 m 0,0 c 0.10941,-0.066 0.21816,-0.13122 0.32671,-0.19792 m 0,0 c 0.10874,-0.0671 0.21671,-0.13398 0.32449,-0.20198 m 0,0 c 0.10799,-0.0685 0.21514,-0.13665 0.32218,-0.20606 m 0,0 c 0.10689,-0.0697 0.21369,-0.13928 0.31999,-0.21008 m 0,0 c 0.10622,-0.0711 0.2121,-0.14208 0.31754,-0.21409 m 0,0 c 0.10557,-0.0724 0.21059,-0.14473 0.31529,-0.2181 m 0,0 c 0.1048,-0.0742 0.20894,-0.14744 0.31279,-0.22209 m 0,0 c 0.10394,-0.0753 0.20735,-0.15014 0.31035,-0.22624 m 0,0 c 0.10303,-0.0759 0.20564,-0.15269 0.30781,-0.23002 m 0,0 c 0.10207,-0.0775 0.20397,-0.15543 0.30534,-0.2341 m 0,0 c 0.10129,-0.0789 0.20223,-0.15804 0.30274,-0.23803 m 0,0 c 0.10063,-0.0801 0.2005,-0.16071 0.3001,-0.24196 m 0,0 c 0.0998,-0.0813 0.19876,-0.16323 0.29738,-0.24589 m 0,0 c 0.0988,-0.0828 0.19695,-0.16593 0.29472,-0.24985 m 0,0 c 0.098,-0.0839 0.19511,-0.16844 0.29194,-0.25366 m 0,0 c 0.0971,-0.0852 0.19335,-0.17109 0.28914,-0.25765 m 0,0 c 0.0962,-0.0863 0.19135,-0.17365 0.28637,-0.26142 m 0,0 c 0.0953,-0.0882 0.18957,-0.17627 0.28348,-0.26539 m 0,0 c 0.0941,-0.0892 0.18744,-0.17884 0.28048,-0.26921 m 0,0 c 0.0932,-0.0907 0.18554,-0.18136 0.27754,-0.27297 m 0,0 c 0.0923,-0.0921 0.18352,-0.18403 0.27464,-0.27691 m 0,0 c 0.0911,-0.093 0.18155,-0.18643 0.27148,-0.28073 m 0,0 c 0.0902,-0.0943 0.17938,-0.18907 0.26839,-0.28452 m 0,0 c 0.089,-0.0956 0.17734,-0.1915 0.26529,-0.28821 m 0,0 c 0.0877,-0.0969 0.17515,-0.19412 0.26201,-0.29205 m 0,0 c 0.0868,-0.0981 0.17308,-0.19665 0.2588,-0.29587 m 0,0 c 0.0855,-0.0997 0.17102,-0.19905 0.25559,-0.2996 m 0,0 c 0.0846,-0.10048 0.16882,-0.20155 0.25228,-0.30326 m 0,0 c 0.0837,-0.10168 0.16667,-0.20409 0.24901,-0.30705 m 0,0 c 0.0824,-0.10274 0.16432,-0.20656 0.24553,-0.31083 m 0,0 c 0.0807,-0.1044 0.16207,-0.209 0.24219,-0.31441 m 0,0 c 0.0796,-0.10546 0.15977,-0.2115 0.23864,-0.3182 m 0,0 c 0.0786,-0.10686 0.15733,-0.21395 0.23512,-0.32191 m 0,0 c 0.0774,-0.10794 0.15499,-0.21634 0.23151,-0.32552 m 0,0 c 0.0758,-0.10905 0.15253,-0.21884 0.22802,-0.32912 m 0,0 c 0.0753,-0.11031 0.15018,-0.22131 0.22446,-0.33276 m 0,0 c 0.0743,-0.11177 0.14778,-0.22372 0.22058,-0.33647 m 0,0 c 0.0728,-0.11275 0.14499,-0.2263 0.21692,-0.34014 m 0,0 c 0.0716,-0.11397 0.14241,-0.2287 0.21322,-0.34363 m 0,0 c 0.0702,-0.11518 0.14002,-0.23104 0.20914,-0.34745 m 0,0 c 0.069,-0.11635 0.13736,-0.23343 0.20521,-0.35102 m 0,0 c 0.0679,-0.11749 0.13492,-0.23575 0.20146,-0.35448 m 0,0 c 0.0666,-0.11869 0.13248,-0.23793 0.19779,-0.3579"
         style="display:inline;opacity:0.98;fill:#999999;fill-opacity:1;stroke:#000000;stroke-width:3.6481;stroke-linecap:butt;stroke-linejoin:miter;stroke-miterlimit:7.9;stroke-dasharray:none;stroke-dashoffset:0;stroke-opacity:0.249871;paint-order:markers stroke fill" />
      <path
         id="path840-6"
         d="m 154.93393,-184.42901 c -0.0147,0.14802 -0.0314,0.2949 -0.0479,0.44195 m 0,0 c -0.0174,0.14725 -0.0348,0.29388 -0.0533,0.44037 m 0,0 c -0.02,0.14678 -0.0388,0.2927 -0.0592,0.43869 m 0,0 c -0.02,0.14624 -0.0418,0.2916 -0.0645,0.43685 m 0,0 c -0.0227,0.14551 -0.0455,0.29057 -0.0696,0.43519 m 0,0 c -0.0259,0.14498 -0.0489,0.28934 -0.0748,0.43352 m 0,0 c -0.0259,0.14425 -0.0525,0.28803 -0.0806,0.43146 m 0,0 c -0.0279,0.14382 -0.0565,0.28684 -0.0859,0.42976 m 0,0 c -0.0296,0.14303 -0.0599,0.28551 -0.0908,0.42788 m 0,0 c -0.0314,0.14229 -0.0633,0.28429 -0.0959,0.42583 m 0,0 c -0.0329,0.14177 -0.0667,0.28293 -0.1012,0.42395 m 0,0 c -0.0348,0.14096 -0.0699,0.28164 -0.10624,0.42195 m 0,0 c -0.0363,0.14022 -0.0736,0.28016 -0.11157,0.41979 m 0,0 c -0.0384,0.13948 -0.0765,0.27898 -0.11676,0.41784 m 0,0 c -0.0397,0.13878 -0.0802,0.27749 -0.12162,0.41568 m 0,0 c -0.041,0.13804 -0.0836,0.27601 -0.12645,0.41367 m 0,0 c -0.0429,0.13744 -0.0869,0.27461 -0.13146,0.4113 m 0,0 c -0.0448,0.13651 -0.0902,0.27319 -0.13658,0.40926 m 0,0 c -0.0462,0.13575 -0.0935,0.27158 -0.14123,0.40695 m 0,0 c -0.0476,0.13498 -0.0964,0.27013 -0.14611,0.40459 m 0,0 c -0.0494,0.13427 -0.0997,0.26867 -0.15112,0.40241 m 0,0 c -0.0511,0.13351 -0.10276,0.26708 -0.15587,0.4 m 0,0 c -0.0525,0.13276 -0.10629,0.26544 -0.1604,0.39764 m 0,0 c -0.0545,0.13199 -0.10967,0.26396 -0.16543,0.39523 m 0,0 c -0.0559,0.13098 -0.1124,0.26238 -0.16996,0.39274 m 0,0 c -0.0577,0.13025 -0.11574,0.26065 -0.17448,0.39038 m 0,0 c -0.059,0.12927 -0.11882,0.25895 -0.17924,0.38768 m 0,0 c -0.0604,0.12848 -0.1217,0.25735 -0.18381,0.3853 m -13.52583,14.81295 c -0.12141,0.0734 -0.24337,0.14626 -0.36567,0.21827 m 0,0 c -0.12252,0.0718 -0.24514,0.14327 -0.36846,0.21377 m 0,0 c -0.12342,0.0704 -0.2471,0.14025 -0.37131,0.20928 m 0,0 c -0.12412,0.0688 -0.24894,0.13724 -0.37409,0.20472 m 0,0 c -0.12505,0.0675 -0.25079,0.13429 -0.37681,0.20027 m 0,0 c -0.12601,0.0659 -0.25257,0.13125 -0.37951,0.19578 m 0,0 c -0.12699,0.0646 -0.25439,0.12828 -0.38222,0.19098 m 0,0 c -0.12782,0.0632 -0.2561,0.12508 -0.38482,0.18654 m 0,0 c -0.12879,0.0616 -0.2578,0.12195 -0.38742,0.18224 m 0,0 c -0.12964,0.06 -0.25952,0.119 -0.39001,0.17804 m 0,0 c -0.13047,0.0583 -0.26126,0.11586 -0.39251,0.17424 m 0,0 c -0.13117,0.057 -0.26291,0.11217 -0.39503,0.16976 m 0,0 c -0.13198,0.0552 -0.2646,0.11002 -0.39749,0.16502 m 0,0 c -0.13281,0.0535 -0.26618,0.10706 -0.39988,0.16027 m 0,0 c -0.1337,0.0517 -0.26783,0.10377 -0.40232,0.15551 m 0,0 c -0.13452,0.05 -0.26937,0.10027 -0.40469,0.1505 m 0,0 c -0.13527,0.0484 -0.27092,0.0987 -0.40696,0.14551 m 0,0 c -0.1361,0.0468 -0.27249,0.0951 -0.40928,0.1405 m 0,0 c -0.13694,0.0452 -0.27396,0.0922 -0.41156,0.13549 m 0,0 c -0.13748,0.0434 -0.27547,0.0888 -0.41376,0.13056 m 0,0 c -0.13816,0.0415 -0.27691,0.0853 -0.41592,0.12525 m 0,0 c -0.13892,0.04 -0.27838,0.0818 -0.41813,0.12027 m 0,0 c -0.13963,0.0373 -0.27978,0.0781 -0.42016,0.1151 m 0,0 c -0.14041,0.0392 -0.28121,0.0748 -0.42228,0.11163 m 0,0 c -0.14112,0.0369 -0.28257,0.0715 -0.42434,0.10563 m 0,0 c -0.14181,0.0351 -0.28392,0.0677 -0.42634,0.1002 m 0,0 c -0.14248,0.0346 -0.28526,0.0643 -0.42833,0.0964 m 0,0 c -0.14316,0.0326 -0.28655,0.0607 -0.4303,0.091 m -12.06106,0.37544 c -0.14671,-0.0201 -0.29327,-0.0408 -0.43943,-0.0639 m 0,0 c -0.14613,-0.0223 -0.29213,-0.0444 -0.4377,-0.0691 m 0,0 c -0.14556,-0.0249 -0.29091,-0.0479 -0.43593,-0.0746 m 0,0 c -0.1449,-0.0267 -0.28964,-0.0517 -0.43401,-0.0803 m 0,0 c -0.14441,-0.0286 -0.28845,-0.0553 -0.43216,-0.0858 m 0,0 c -0.14387,-0.03 -0.2872,-0.059 -0.43028,-0.0911 m 0,0 c -0.14317,-0.0307 -0.28588,-0.0626 -0.42836,-0.0963 m 0,0 c -0.1425,-0.0327 -0.28453,-0.066 -0.42631,-0.10076 m 0,0 c -0.14179,-0.0351 -0.28321,-0.0697 -0.42434,-0.10616 m 0,0 c -0.14108,-0.0351 -0.28187,-0.073 -0.42227,-0.11004 m 0,0 c -0.14045,-0.0385 -0.28048,-0.0763 -0.42023,-0.1151 m 0,0 c -0.13962,-0.039 -0.27906,-0.0799 -0.41807,-0.12026 m 0,0 c -0.13893,-0.0411 -0.27767,-0.0837 -0.41594,-0.12526 m 0,0 c -0.13823,-0.0417 -0.27623,-0.087 -0.41375,-0.13051 m 0,0 c -0.13747,-0.0434 -0.27479,-0.0904 -0.41156,-0.13552 m 0,0 c -0.13686,-0.0451 -0.27324,-0.0937 -0.40927,-0.14051 m 0,0 c -0.1361,-0.0468 -0.27171,-0.0969 -0.40702,-0.14555 m 0,0 c -0.1353,-0.0484 -0.27014,-0.10094 -0.40463,-0.15052 m 0,0 c -0.13453,-0.05 -0.2686,-0.10227 -0.40235,-0.15552 m 0,0 c -0.13371,-0.0516 -0.26702,-0.1056 -0.39996,-0.16025 m 0,0 c -0.13283,-0.0535 -0.26532,-0.10792 -0.39742,-0.16523 m 0,0 c -0.13201,-0.0551 -0.26381,-0.11117 -0.39505,-0.16976 m 0,0 c -0.13119,-0.057 -0.2621,-0.11402 -0.39251,-0.17502 m 0,0 c -0.13046,-0.0583 -0.26044,-0.11738 -0.39001,-0.17745 m 0,0 c -0.12962,-0.0599 -0.25872,-0.12026 -0.38746,-0.18103 m 0,0 c -0.1287,-0.0613 -0.25694,-0.12337 -0.38476,-0.18645 m 0,0 c -0.12792,-0.063 -0.25526,-0.12646 -0.38222,-0.191 m 0,0 c -0.12692,-0.0646 -0.25344,-0.12974 -0.37948,-0.19576 m 0,0 c -0.12603,-0.0662 -0.25169,-0.13272 -0.37682,-0.20025 m 0,0 c -0.12511,-0.0677 -0.24982,-0.1357 -0.37409,-0.20474 m 0,0 c -0.12409,-0.0689 -0.24795,-0.13874 -0.37129,-0.20926 m 0,0 c -0.12335,-0.0703 -0.2461,-0.14171 -0.3685,-0.21372 m 0,0 c -0.1223,-0.072 -0.2442,-0.14475 -0.36564,-0.21823 m -10.491649,-9.70737 c -0.0822,-0.11398 -0.16358,-0.23081 -0.24426,-0.34584 m 0,0 c -0.0808,-0.11503 -0.16075,-0.23272 -0.24016,-0.34904 m 0,0 c -0.0794,-0.1161 -0.15814,-0.235 -0.23613,-0.35184 m 0,0 c -0.0778,-0.11714 -0.15523,-0.23704 -0.23181,-0.35477 m 0,0 c -0.0764,-0.11814 -0.15251,-0.23933 -0.22775,-0.3578 m 0,0 c -0.0749,-0.11924 -0.14961,-0.24183 -0.22334,-0.36088 m 0,0 c -0.0737,-0.11999 -0.14677,-0.24101 -0.21917,-0.36346 m 0,0 c -0.0722,-0.12102 -0.14404,-0.24326 -0.21492,-0.36646 m 0,0 c -0.0708,-0.12185 -0.14106,-0.24522 -0.21042,-0.36902 m 0,0 c -0.0693,-0.12294 -0.1381,-0.24698 -0.2062,-0.37191 m 0,0 c -0.0679,-0.12373 -0.1353,-0.24956 -0.20177,-0.37474 m 0,0 c -0.0666,-0.12476 -0.13218,-0.25089 -0.1973,-0.37732 m 0,0 c -0.0651,-0.12572 -0.12935,-0.25242 -0.19292,-0.38 m 0,0 c -0.0637,-0.12682 -0.12623,-0.25471 -0.18819,-0.38278 m 0,0 c -0.062,-0.12751 -0.12327,-0.25638 -0.18378,-0.38518 m 0,0 c -0.0607,-0.12847 -0.12025,-0.25802 -0.17928,-0.38775 m 0,0 c -0.0592,-0.12925 -0.11724,-0.25976 -0.17453,-0.39019 m 0,0 c -0.0576,-0.13035 -0.11427,-0.26155 -0.16995,-0.39278 m 0,0 c -0.0561,-0.13103 -0.11103,-0.26326 -0.16531,-0.39529 m 0,0 c -0.0543,-0.13178 -0.10799,-0.26465 -0.16049,-0.39752 m 0,0 c -0.0527,-0.13278 -0.1044,-0.26635 -0.15582,-0.40012 m 0,0 c -0.051,-0.13351 -0.10142,-0.26782 -0.15108,-0.40243 m 0,0 c -0.0494,-0.13425 -0.0982,-0.26945 -0.14612,-0.4046 m 0,0 c -0.0477,-0.13502 -0.0949,-0.27099 -0.1413,-0.40696 m 0,0 c -0.0461,-0.136 -0.092,-0.27247 -0.13652,-0.4091 m 0,0 c -0.0447,-0.13673 -0.0886,-0.27391 -0.13142,-0.41158 m 0,0 c -0.0429,-0.13746 -0.0853,-0.27524 -0.12652,-0.41347 m 0,0 c -0.041,-0.13827 -0.082,-0.27673 -0.12142,-0.41563 m 0,0 c -0.0397,-0.13904 -0.0784,-0.27834 -0.11666,-0.41785 m 0,0 c -0.0382,-0.13947 -0.0749,-0.27958 -0.11152,-0.41989 m 0,0 c -0.0365,-0.14027 -0.0718,-0.28095 -0.10635,-0.42187 m 0,0 c -0.0346,-0.14097 -0.0679,-0.28232 -0.10116,-0.42397 m 0,0 c -0.0329,-0.14179 -0.0652,-0.28358 -0.0957,-0.4259 m 0,0 c -0.0315,-0.14251 -0.0614,-0.28488 -0.091,-0.42781 m 0,0 c -0.0296,-0.14302 -0.0581,-0.28618 -0.0858,-0.42966 m 0,0 c -0.0277,-0.14377 -0.0545,-0.28743 -0.0805,-0.43161 m 1.89851,-19.099 c 0.0527,-0.13276 0.10621,-0.26548 0.16049,-0.39764 m 0,0 c 0.0543,-0.13179 0.10967,-0.26394 0.16529,-0.39519 m 0,0 c 0.0561,-0.13102 0.11269,-0.26236 0.16996,-0.39284 m 0,0 c 0.0577,-0.13023 0.11581,-0.26062 0.17452,-0.39029 m 0,0 c 0.0592,-0.12922 0.11883,-0.25895 0.17931,-0.38779 m 0,0 c 0.0604,-0.12845 0.12165,-0.25732 0.18374,-0.38521 m 0,0 c 0.0621,-0.12753 0.12473,-0.25564 0.18828,-0.38256 m 0,0 c 0.0637,-0.12652 0.12778,-0.2538 0.19288,-0.38008 m 0,0 c 0.0653,-0.12578 0.13081,-0.25195 0.19727,-0.37734 m 0,0 c 0.0666,-0.12482 0.13378,-0.2498 0.20179,-0.37468 m 0,0 c 0.0678,-0.12403 0.13678,-0.24799 0.20617,-0.37195 m 0,0 c 0.0692,-0.12294 0.13953,-0.24577 0.21048,-0.3692 m 0,0 c 0.0707,-0.12195 0.14251,-0.24456 0.21498,-0.36639 m 0,0 c 0.0723,-0.121 0.14526,-0.24178 0.21916,-0.3635 m 0,0 c 0.0737,-0.11992 0.14824,-0.24127 0.22337,-0.3608 m 0,0 c 0.0749,-0.11898 0.15114,-0.23949 0.22769,-0.35785 m 0,0 c 0.0764,-0.1182 0.15381,-0.23802 0.2318,-0.35469 m 0,0 c 0.0778,-0.11716 0.1567,-0.23603 0.23615,-0.35191 m 0,0 c 0.0793,-0.11612 0.15936,-0.23402 0.24013,-0.34899 m 0,0 c 0.081,-0.11507 0.16214,-0.23177 0.24414,-0.34577 m 0,0 c 0.0821,-0.11414 0.16494,-0.22977 0.24829,-0.3429 m 0,0 c 0.0836,-0.11292 0.16746,-0.22748 0.25226,-0.33962 m 0,0 c 0.0848,-0.11177 0.17024,-0.22558 0.25631,-0.33653 m 0,0 c 0.0863,-0.11007 0.17296,-0.22331 0.26031,-0.33352 m 0,0 c 0.0876,-0.10864 0.17541,-0.22103 0.26419,-0.33021 m 0,0 c 0.0887,-0.10861 0.17812,-0.21876 0.26803,-0.32676 m 0,0 c 0.0901,-0.10891 0.18064,-0.21652 0.27196,-0.32365 m 0,0 c 0.0911,-0.10813 0.18317,-0.2143 0.2757,-0.3204 m 0,0 c 0.0926,-0.1056 0.18583,-0.21203 0.27955,-0.31696 m 0,0 c 0.0936,-0.10463 0.1881,-0.20946 0.28323,-0.31373 m 0,0 c 0.0949,-0.10405 0.1907,-0.20724 0.28695,-0.31012 m 0,0 c 0.096,-0.10535 0.19328,-0.20498 0.29066,-0.30682 m 0,0 c 0.0973,-0.10133 0.19554,-0.20244 0.29432,-0.30323 m 0,0 c 0.0986,-0.0994 0.19801,-0.20002 0.29788,-0.29972 m 0,0 c 0.0998,-0.10101 0.2005,-0.19752 0.30145,-0.29627 m 0,0 c 0.10098,-0.0989 0.20271,-0.19528 0.30501,-0.2925 m 0,0 c 0.10215,-0.0982 0.20512,-0.19274 0.30855,-0.28898 m 0,0 c 0.10302,-0.0963 0.20751,-0.19002 0.31198,-0.28541 m 0,0 c 0.10432,-0.0955 0.20963,-0.18753 0.31542,-0.28157 m 0,0 c 0.10556,-0.094 0.21195,-0.18502 0.31881,-0.27811 m 0,0 c 0.10686,-0.0927 0.21429,-0.18251 0.32219,-0.27408 m 0,0 c 0.10812,-0.0916 0.21637,-0.17901 0.32549,-0.27031 m 0,0 c 0.10933,-0.0904 0.21863,-0.17872 0.32884,-0.26648 m 0,0 c 0.11032,-0.0888 0.22086,-0.17501 0.33203,-0.26281 m 0,0 c 0.11135,-0.0877 0.22293,-0.17274 0.33531,-0.25872 m 0,0 c 0.11246,-0.0863 0.22507,-0.17195 0.3385,-0.25487 m 0,0 c 0.11335,-0.0849 0.22727,-0.169 0.34162,-0.2509 m 12.817909,-5.82841 c 0.14253,-0.0328 0.28524,-0.0642 0.42836,-0.0963 m 0,0 c 0.14314,-0.0328 0.28647,-0.0609 0.43026,-0.0911 m 0,0 c 0.14384,-0.0297 0.28781,-0.0575 0.43218,-0.0858 m 0,0 c 0.14436,-0.0283 0.28908,-0.0535 0.43401,-0.0803 m 0,0 c 0.14495,-0.0268 0.2903,-0.0498 0.43593,-0.0746 m 0,0 c 0.14548,-0.0249 0.29149,-0.0462 0.43766,-0.0691 m 0,0 c 0.14614,-0.0223 0.29268,-0.0426 0.43942,-0.0639 m 0,0 c 0.14676,-0.0199 0.29389,-0.04 0.44124,-0.0585 m 0,0 c 0.14731,-0.0199 0.29498,-0.0376 0.4429,-0.0524 m 0,0 c 0.14789,-0.0173 0.29606,-0.0328 0.44456,-0.0466 m 0,0 c 0.14843,-0.015 0.29721,-0.0303 0.44618,-0.0411 m 0,0 c 0.14904,-0.0127 0.29826,-0.0261 0.44779,-0.0371 m 0,0 c 0.14956,-0.0127 0.29934,-0.0223 0.44934,-0.0327 m 0,0 c 0.1501,-0.012 0.30031,-0.0173 0.4509,-0.0265 m 0,0 c 0.15058,-0.01 0.30132,-0.0147 0.45231,-0.02 m 0,0 c 0.15117,-0.006 0.30232,-0.0119 0.45382,-0.0149 m 0,0 c 0.15172,-0.006 0.30332,-0.01 0.4553,-0.0119 m 0,0 c 0.15193,-0.002 0.30415,-0.002 0.45663,-0.002 m 0,0 c 0.15242,0 0.30464,9.1e-4 0.45664,0.002 m 0,0 c 0.15191,0.002 0.30369,0.006 0.45519,0.01 m 0,0 c 0.15176,0.006 0.30282,0.012 0.45381,0.0148 m 0,0 c 0.15119,0.006 0.30185,0.0128 0.4524,0.0199 m 0,0 c 0.15066,0.01 0.30083,0.0174 0.45086,0.0265 m 0,0 c 0.15013,0.0118 0.29986,0.0199 0.44938,0.0329 m 0,0 c 0.14956,0.0127 0.29879,0.0249 0.44775,0.0374 m 0,0 c 0.149,0.0126 0.29776,0.0286 0.44619,0.0407 m 0,0 c 0.14843,0.0147 0.29668,0.0327 0.44461,0.0467 m 0,0 c 0.14784,0.0174 0.29552,0.0351 0.44288,0.0524 m 0,0 c 0.14727,0.0199 0.29439,0.0379 0.44115,0.0585 m 0,0 c 0.14672,0.02 0.29331,0.0402 0.43949,0.0639 m 0,0 c 0.14611,0.0223 0.29204,0.0444 0.4377,0.0691 m 0,0 c 0.14547,0.0249 0.2909,0.0479 0.43589,0.0746 m 0,0 c 0.14495,0.0268 0.28963,0.0517 0.43403,0.0803 m 0,0 c 0.14436,0.0286 0.28842,0.0553 0.43216,0.0858 m 0,0 c 0.14383,0.03 0.28718,0.0592 0.43027,0.0911 m 0,0 c 0.14314,0.0321 0.2859,0.0626 0.42836,0.0964 m 0,0 c 0.14246,0.0351 0.28454,0.0663 0.42635,0.10056 m 0,0 c 0.1418,0.0348 0.28321,0.0696 0.4243,0.1054 m 0,0 c 0.1411,0.0377 0.28184,0.0731 0.42232,0.11085 m 0,0 c 0.14036,0.0361 0.28049,0.0761 0.42021,0.11507 m 0,0 c 0.13961,0.0403 0.27906,0.0799 0.41808,0.12017 m 0,0 c 0.13894,0.0408 0.27765,0.0838 0.41591,0.12526 m 0,0 c 0.13815,0.0414 0.27621,0.087 0.41376,0.13053 m 0,0 c 0.13761,0.0433 0.27474,0.0905 0.41152,0.13548 m 0,0 c 0.13694,0.0452 0.27326,0.0938 0.40933,0.1405 m 0,0 c 0.1361,0.0468 0.2717,0.0968 0.40698,0.14553 m 0,0 c 0.13532,0.0483 0.27013,0.0999 0.40466,0.15052 m 0,0 c 0.13446,0.05 0.26859,0.103 0.4023,0.15549 m 0,0 c 0.13368,0.0516 0.26702,0.10673 0.39993,0.16027 m 0,0 c 0.13288,0.0535 0.26541,0.10762 0.39743,0.16523 m 0,0 c 0.13208,0.0551 0.26383,0.1105 0.39506,0.16977 m 0,0 c 0.13121,0.057 0.2621,0.114 0.3925,0.17378 m 0,0 c 0.1306,0.0585 0.26048,0.1174 0.38999,0.17798 m 0,0 c 0.12971,0.0598 0.25878,0.12044 0.38746,0.18151 m 0,0 c 0.12878,0.0612 0.25698,0.12346 0.38481,0.18651 m 0,0 c 0.12791,0.0633 0.25527,0.12656 0.3822,0.19104 m 0,0 c 0.12696,0.0646 0.25346,0.12974 0.37955,0.19574 m 10.52674,8.42068 c 0.0914,0.10703 0.18184,0.21552 0.27189,0.32359 m 0,0 c 0.0901,0.10791 0.17948,0.21779 0.26808,0.327 m 0,0 c 0.0888,0.10835 0.1768,0.22 0.26417,0.33015 m 0,0 c 0.0876,0.10948 0.17412,0.22228 0.26029,0.33332 m 0,0 c 0.0863,0.11075 0.17156,0.22427 0.25631,0.33667 m 0,0 c 0.0849,0.11243 0.16883,0.22653 0.25227,0.33954 m 0,0 c 0.0836,0.11295 0.16626,0.22877 0.24829,0.34287 m 0,0 c 0.0821,0.11399 0.16358,0.23075 0.24425,0.34578 m 0,0 c 0.081,0.11508 0.16075,0.23302 0.24015,0.349 m 0,0 c 0.0793,0.11614 0.15813,0.23501 0.236,0.35182 m 0,0 c 0.0778,0.11721 0.15527,0.23702 0.23187,0.35494 m 0,0 c 0.0764,0.11819 0.15233,0.23921 0.22769,0.35782 m 0,0 c 0.075,0.11908 0.14967,0.24077 0.22333,0.36076 m 0,0 c 0.0736,0.11996 0.14678,0.24176 0.2192,0.3635 m 0,0 c 0.0724,0.12082 0.14405,0.2442 0.215,0.36643 m 0,0 c 0.0708,0.12203 0.14104,0.24627 0.21044,0.36905 m 0,0 c 0.0692,0.12293 0.1381,0.24705 0.20621,0.37196 m 0,0 c 0.0678,0.12368 0.13524,0.24878 0.20174,0.37472 m 0,0 c 0.0666,0.12479 0.13229,0.25131 0.1973,0.37729 m 0,0 c 0.0652,0.12577 0.12939,0.25275 0.19291,0.38007 m 0,0 c 0.0637,0.12675 0.12629,0.25462 0.18824,0.38269 m 0,0 c 0.062,0.1275 0.12342,0.25636 0.18381,0.38514 m 0,0 c 0.0604,0.12849 0.12028,0.2581 0.17928,0.38781 m 0,0 c 0.0589,0.12928 0.11734,0.25982 0.17445,0.3903 m 0,0 c 0.0575,0.13027 0.11416,0.26142 0.16998,0.39275 m 0,0 c 0.0561,0.13103 0.11116,0.26305 0.1654,0.39524 m 0,0 c 0.0546,0.13177 0.10799,0.26466 0.1604,0.39753 m 0,0 c 0.0525,0.13275 0.10443,0.26635 0.15586,0.40007 m 0,0 c 0.0512,0.13351 0.10139,0.26789 0.15114,0.40241 m 0,0 c 0.0494,0.13427 0.0983,0.26938 0.14606,0.40467 m 0,0 c 0.0475,0.135 0.0948,0.27089 0.14128,0.40699 m 0,0 c 0.0464,0.136 0.0919,0.27235 0.13657,0.4091 m 0,0 c 0.0447,0.13652 0.0887,0.2739 0.13146,0.41144 m 0,0 c 0.0429,0.13748 0.0853,0.2754 0.12644,0.4136 m 0,0 c 0.0411,0.13828 0.0818,0.27675 0.12166,0.41568 m 0,0 c 0.0398,0.13876 0.0784,0.27816 0.1168,0.41787 m 0,0 c 0.0384,0.1395 0.0752,0.27952 0.11166,0.41989 m 0,0 c 0.0363,0.14021 0.0719,0.28093 0.10628,0.42189 m 0,0 c 0.0348,0.14099 0.0679,0.28232 0.10115,0.42388 m 0,0 c 0.0331,0.14172 0.0648,0.28365 0.0959,0.42589 m 0,0 c 0.0313,0.14255 0.0614,0.2849 0.0909,0.42785 m 0,0 c 0.0296,0.14304 0.0582,0.2861 0.0859,0.42964 m 0,0 c 0.0278,0.14375 0.0545,0.2875 0.0806,0.4316 m 0,0 c 0.0259,0.14426 0.0508,0.28858 0.0748,0.43341 m 0,0 c 0.0259,0.14503 0.0471,0.2898 0.0695,0.43522 m 0,0 c 0.0225,0.14552 0.0439,0.29097 0.0645,0.4369"
         style="opacity:0.98;fill:#999999;fill-opacity:1;stroke:#000000;stroke-width:0.726261;stroke-linecap:butt;stroke-linejoin:miter;stroke-miterlimit:7.9;stroke-dasharray:none;stroke-dashoffset:0;stroke-opacity:0.249871;paint-order:markers stroke fill" />
    </g>
  </g>
  <g
     transform="translate(-36.012256,130.94107)"
     style="display:inline;opacity:1"
     id="layer3" />
  <g
     transform="translate(-36.012256,130.94107)"
     style="display:inline;opacity:1"
     id="layer2" />
</svg>
