<?xml version="1.0" encoding="UTF-8" standalone="no"?>
<svg
   xmlns:dc="http://purl.org/dc/elements/1.1/"
   xmlns:cc="http://creativecommons.org/ns#"
   xmlns:rdf="http://www.w3.org/1999/02/22-rdf-syntax-ns#"
   xmlns:svg="http://www.w3.org/2000/svg"
   xmlns="http://www.w3.org/2000/svg"
   width="512"
   height="512"
   id="svg3255"
   version="1.1">
  <defs
     id="defs3257" />
  <metadata
     id="metadata3260">
    <rdf:RDF>
      <cc:Work
         rdf:about="">
        <dc:format>image/svg+xml</dc:format>
        <dc:type
           rdf:resource="http://purl.org/dc/dcmitype/StillImage" />
      </cc:Work>
    </rdf:RDF>
  </metadata>
  <g
     id="layer1"
     transform="translate(0,-540.36218)">
    <rect
       style="color:#000000;display:inline;overflow:visible;visibility:visible;fill:#d69e2e;fill-opacity:1;fill-rule:nonzero;stroke:none;stroke-width:0.543;marker:none;enable-background:accumulate"
       id="rect3263"
       width="337.5"
       height="262.5"
       x="106"
       y="636.98718" />
    <rect
       style="color:#000000;display:inline;overflow:visible;visibility:visible;fill:#ffffff;fill-opacity:1;fill-rule:nonzero;stroke:none;stroke-width:0.543075;marker:none;enable-background:accumulate"
       id="rect3263-1"
       width="300"
       height="225"
       x="124.75"
       y="655.73718" />
    <rect
       style="color:#000000;display:inline;overflow:visible;visibility:visible;fill:#d69e2e;fill-opacity:1;fill-rule:nonzero;stroke:none;stroke-width:0.543075;marker:none;enable-background:accumulate"
       id="rect3263-7"
       width="262.5"
       height="187.5"
       x="31.000008"
       y="768.23718" />
    <rect
       style="color:#000000;display:inline;overflow:visible;visibility:visible;fill:#ffffff;fill-opacity:1;fill-rule:nonzero;stroke:none;stroke-width:0.543075;marker:none;enable-background:accumulate"
       id="rect3263-1-4"
       width="206.25"
       height="150"
       x="49.750008"
       y="786.98718" />
    <circle
       style="color:#000000;display:inline;overflow:visible;visibility:visible;fill:#ffffff;fill-opacity:1;fill-rule:nonzero;stroke:none;stroke-width:0.0647606;marker:none;enable-background:accumulate"
       id="path4072"
       cx="274.74997"
       cy="861.98724"
       r="7.5" />
    <rect
       style="color:#000000;display:inline;overflow:visible;visibility:visible;fill:#d69e2e;fill-opacity:0.30919853;fill-rule:nonzero;stroke:none;stroke-width:2.172;marker:none;enable-background:accumulate"
       id="rect4182"
       width="198.75"
       height="37.5"
       x="53.5"
       y="826.36218" />
    <rect
       style="color:#000000;display:inline;overflow:visible;visibility:visible;fill:#d69e2e;fill-opacity:0.30919853;fill-rule:nonzero;stroke:none;stroke-width:2.172;marker:none;enable-background:accumulate"
       id="rect4182-4"
       width="63.75"
       height="65.625"
       x="53.5"
       y="867.61218" />
    <rect
       style="color:#000000;display:inline;overflow:visible;visibility:visible;fill:#d69e2e;fill-opacity:0.30919853;fill-rule:nonzero;stroke:none;stroke-width:2.172;marker:none;enable-background:accumulate"
       id="rect4182-4-5"
       width="63.75"
       height="65.625"
       x="121"
       y="867.61218" />
    <rect
       style="color:#000000;display:inline;overflow:visible;visibility:visible;fill:#d69e2e;fill-opacity:0.30919853;fill-rule:nonzero;stroke:none;stroke-width:2.172;marker:none;enable-background:accumulate"
       id="rect4182-4-51"
       width="63.75"
       height="65.625"
       x="188.5"
       y="867.61218" />
    <rect
       style="color:#000000;display:inline;overflow:visible;visibility:visible;fill:#d69e2e;fill-opacity:0.30919853;fill-rule:nonzero;stroke:none;stroke-width:2.172;marker:none;enable-background:accumulate"
       id="rect4182-1"
       width="292.5"
       height="37.5"
       x="128.5"
       y="702.61218" />
    <rect
       style="color:#000000;display:inline;overflow:visible;visibility:visible;fill:#d69e2e;fill-opacity:0.30919853;fill-rule:nonzero;stroke:none;stroke-width:2.172;marker:none;enable-background:accumulate"
       id="rect4182-4-1"
       width="70.3125"
       height="24.375"
       x="128.5"
       y="743.86218" />
    <rect
       style="color:#000000;display:inline;overflow:visible;visibility:visible;fill:#d69e2e;fill-opacity:0.30919853;fill-rule:nonzero;stroke:none;stroke-width:2.172;marker:none;enable-background:accumulate"
       id="rect4182-4-5-5"
       width="70.3125"
       height="24.375"
       x="202.5625"
       y="743.86218" />
    <path
       style="color:#000000;display:inline;overflow:visible;visibility:visible;fill:#d69e2e;fill-opacity:0.30919853;fill-rule:nonzero;stroke:none;stroke-width:2.172;marker:none;enable-background:accumulate"
       d="m 276.625,743.86217 v 24.375 H 293.5 v 108.75 h 53.4375 v -133.125 z"
       id="rect4182-4-51-2" />
    <rect
       style="color:#000000;display:inline;overflow:visible;visibility:visible;fill:#d69e2e;fill-opacity:0.30919853;fill-rule:nonzero;stroke:none;stroke-width:2.172;marker:none;enable-background:accumulate"
       id="rect4182-4-51-2-2"
       width="70.3125"
       height="133.125"
       x="350.6875"
       y="743.86218" />
    <path
       style="color:#000000;display:inline;overflow:visible;visibility:visible;fill:#d69e2e;fill-opacity:1;fill-rule:nonzero;stroke:none;stroke-width:0.543075;marker:none;enable-background:accumulate"
       d="m 415.375,805.73716 c -0.64721,0 -1.27643,0.0626 -1.88672,0.1875 -0.61029,0.12488 -1.19701,0.31354 -1.75782,0.5508 -0.5608,0.23719 -1.09499,0.53021 -1.59375,0.86715 -0.49875,0.33698 -0.95867,0.71262 -1.38281,1.13674 -0.42413,0.42412 -0.81148,0.8958 -1.14844,1.39451 -0.33695,0.49883 -0.62998,1.03302 -0.86718,1.59375 -0.2372,0.56081 -0.41418,1.1475 -0.53907,1.75785 C 406.07433,813.8357 406,814.46495 406,815.11216 v 112.50002 c 0,0.64721 0.0743,1.2765 0.19921,1.8867 0.12489,0.61038 0.30187,1.20874 0.53907,1.76955 0.2372,0.56081 0.53023,1.08319 0.86718,1.58205 0.33696,0.49867 0.72431,0.97039 1.14844,1.39451 0.42414,0.42413 0.88406,0.8115 1.38281,1.14844 0.49876,0.33693 1.03295,0.61833 1.59375,0.85545 0.56081,0.23726 1.14753,0.42592 1.75782,0.5508 0.61029,0.12487 1.23951,0.1875 1.88672,0.1875 h 56.25 c 0.6472,0 1.28814,-0.0626 1.89843,-0.1875 0.61029,-0.12488 1.19701,-0.3135 1.75782,-0.5508 0.5608,-0.23712 1.09499,-0.51852 1.59375,-0.85545 0.49875,-0.33694 0.95867,-0.72431 1.38281,-1.14844 0.42414,-0.42413 0.81148,-0.89584 1.14844,-1.39451 0.33695,-0.49883 0.61827,-1.02124 0.85546,-1.58205 0.2372,-0.56081 0.4259,-1.15917 0.55079,-1.76955 0.12488,-0.61024 0.1875,-1.23949 0.1875,-1.8867 V 815.11216 c 0,-0.64721 -0.0626,-1.2765 -0.1875,-1.8867 -0.12489,-0.61039 -0.31359,-1.19704 -0.55079,-1.75785 -0.23719,-0.56073 -0.51851,-1.09492 -0.85546,-1.59375 -0.33696,-0.49867 -0.7243,-0.97039 -1.14844,-1.39451 -0.42414,-0.42412 -0.88406,-0.79976 -1.38281,-1.13674 -0.49876,-0.33694 -1.03295,-0.62996 -1.59375,-0.86715 -0.56081,-0.23726 -1.14753,-0.42592 -1.75782,-0.5508 -0.61029,-0.12487 -1.25123,-0.1875 -1.89843,-0.1875 z"
       id="path4101" />
    <rect
       style="color:#000000;display:inline;overflow:visible;visibility:visible;fill:#ffffff;fill-opacity:1;fill-rule:nonzero;stroke:none;stroke-width:0.543075;marker:none;enable-background:accumulate"
       id="rect3263-1-4-9"
       width="56.25"
       height="93.75"
       x="415.37833"
       y="824.48718" />
    <rect
       style="color:#000000;display:inline;overflow:visible;visibility:visible;fill:#d69e2e;fill-opacity:0.30919853;fill-rule:nonzero;stroke:none;stroke-width:2.172;marker:none;enable-background:accumulate"
       id="rect4182-16"
       width="48.75"
       height="26.25"
       x="419.125"
       y="846.98718" />
    <rect
       style="color:#000000;display:inline;overflow:visible;visibility:visible;fill:#d69e2e;fill-opacity:0.30919853;fill-rule:nonzero;stroke:none;stroke-width:2.172;marker:none;enable-background:accumulate"
       id="rect4182-16-8"
       width="48.75"
       height="41.25"
       x="419.125"
       y="876.98718" />
  </g>
</svg>
