<?xml version="1.0" encoding="UTF-8" standalone="no"?>
<svg
   xmlns:svg="http://www.w3.org/2000/svg"
   xmlns="http://www.w3.org/2000/svg"
   xmlns:sodipodi="http://sodipodi.sourceforge.net/DTD/sodipodi-0.dtd"
   xmlns:inkscape="http://www.inkscape.org/namespaces/inkscape"
   id="rocket"
   width="48"
   height="48"
   viewBox="0 0 48 48"
   version="1.1"
   sodipodi:docname="rocket.svg"
   inkscape:version="1.1-dev (1:0.92.0+devel+202005110039+9ce7266)">
  <sodipodi:namedview
     pagecolor="#ffffff"
     bordercolor="#666666"
     borderopacity="1"
     objecttolerance="10"
     gridtolerance="10"
     guidetolerance="10"
     inkscape:pageopacity="0"
     inkscape:pageshadow="2"
     inkscape:window-width="1366"
     inkscape:window-height="708"
     id="namedview13"
     showgrid="false"
     showguides="true"
     inkscape:guide-bbox="true"
     inkscape:zoom="20.927663"
     inkscape:cx="24.114304"
     inkscape:cy="21.037175"
     inkscape:window-x="0"
     inkscape:window-y="325"
     inkscape:window-maximized="1"
     inkscape:current-layer="g900">
    <sodipodi:guide
       position="-35.654793,51.158301"
       orientation="1,0"
       id="guide833" />
    <sodipodi:guide
       position="-21.857108,8.2714925"
       orientation="1,0"
       id="guide835" />
  </sodipodi:namedview>
  <defs
     id="defs4">
    <style
       id="style2">
      .vi-primary {
        fill: #f2d863;
      }

      .vi-primary, .vi-accent {
        fill-rule: evenodd;
      }

      .vi-accent {
        fill: #0C0058;
      }
    </style>
  </defs>
  <g
     id="g900"
     transform="matrix(0.91474798,-0.17793258,0.17793258,0.91474798,1.619782,7.8267292)">
    <path
       sodipodi:nodetypes="cccc"
       d="M 43.591864,3.7582151 C 46.14379,14.880863 27.167123,31.00878 23.873099,33.344529 L 14.145902,23.801575 C 16.500525,20.462359 31.558897,1.9366604 43.591864,3.7582151 Z"
       style="fill:#d4aa00;fill-opacity:0.8301996;stroke:none;stroke-width:0.245096;stroke-linecap:round;stroke-linejoin:round;stroke-opacity:1;paint-order:stroke markers fill"
       id="rect830" />
    <path
       sodipodi:nodetypes="cccc"
       d="M 1.7593979,22.531716 22.728089,13.985959 14.145902,23.801575 Z"
       style="fill:#f2c930;fill-opacity:1;stroke:#000000;stroke-width:0.304615;stroke-linecap:round;stroke-linejoin:round;stroke-opacity:0.665645;paint-order:stroke markers fill"
       id="rect855" />
    <path
       id="rect855-3"
       style="fill:#f2c930;fill-opacity:1;stroke:#000000;stroke-width:0.304615;stroke-linecap:round;stroke-linejoin:round;stroke-opacity:0.665645;paint-order:stroke markers fill"
       d="m 25.84228,45.639257 7.588728,-20.91624 -9.557909,8.621512 z"
       sodipodi:nodetypes="cccc" />
    <path
       sodipodi:nodetypes="ccsccsc"
       d="m 14.927318,24.733546 1.173944,1.175452 c -0.102059,0.105311 -0.149377,0.198811 -0.149377,0.198811 -0.417783,1.316 -1.279438,2.014056 -1.279438,2.014056 l -2.051505,-2.054141 c -0.02771,-0.02622 0.796762,-0.881493 2.044464,-1.16866 0,0 0.176137,-0.08475 0.261912,-0.165518 z"
       style="fill:#4d4d4d;stroke:#ffffff;stroke-width:0.166476;stroke-linecap:round;stroke-linejoin:round;paint-order:stroke markers fill"
       id="rect873" />
    <path
       inkscape:transform-center-y="0.037449071"
       inkscape:transform-center-x="0.12991129"
       id="rect873-7"
       style="fill:#4d4d4d;stroke:#ffffff;stroke-width:0.166476;stroke-linecap:round;stroke-linejoin:round;paint-order:stroke markers fill"
       d="m 21.580771,31.261454 1.173943,1.175451 c -0.102059,0.105311 -0.149377,0.198811 -0.149377,0.198811 -0.417782,1.316 -1.279438,2.014057 -1.279438,2.014057 l -2.051505,-2.054142 c -0.02771,-0.02622 0.796763,-0.881493 2.044464,-1.16866 0,0 0.176137,-0.08475 0.261913,-0.165517 z"
       sodipodi:nodetypes="ccsccsc" />
    <path
       id="rect873-2"
       style="fill:#4d4d4d;stroke:#ffffff;stroke-width:0.166476;stroke-linecap:round;stroke-linejoin:round;paint-order:stroke markers fill"
       d="m 18.174652,28.004776 1.173944,1.175452 c -0.102059,0.105311 -0.149377,0.198811 -0.149377,0.198811 -0.417783,1.316001 -1.279438,2.014056 -1.279438,2.014056 l -2.051505,-2.05414 c -0.02771,-0.02622 0.796762,-0.881494 2.044464,-1.168661 0,0 0.176137,-0.08475 0.261912,-0.165518 z"
       sodipodi:nodetypes="ccsccsc" />
    <g
       id="g1006"
       transform="translate(-0.02616352,-0.2075837)">
      <path
         sodipodi:nodetypes="cccscscscsccc"
         d="M 28.312326,9.9258528 38.955837,9.7301024 c 0.995124,1.6532026 3.172134,4.8238466 1.604408,7.5986456 0,0 -0.651251,-1.709087 -0.751286,-1.187814 -0.361917,1.885915 0.360328,3.062924 -2.073265,5.465474 0,0 0.101324,-3.390195 -0.262588,-2.649862 -0.635621,1.293089 -2.815862,4.91036 -3.889291,5.508226 -0.647623,-0.60376 -2.476632,-3.248074 -3.07925,-5.197369 -0.176223,-0.570032 -1.283475,3.416159 -1.283475,3.416159 -2.506435,-3.933597 -1.681266,-5.641436 -1.716945,-6.327972 -0.03478,-0.669169 -1.842499,1.37863 -1.842499,1.37863 -0.237329,-3.983788 0.913783,-5.757895 2.650678,-7.8083672 z"
         transform="rotate(45.574219)"
         style="fill:#f2c94a;fill-opacity:1;stroke:#000000;stroke-width:0.429234;stroke-linecap:round;stroke-linejoin:round;stroke-opacity:1;paint-order:stroke markers fill"
         id="rect952" />
      <path
         id="rect952-9"
         style="fill:#f2c94a;fill-opacity:1;stroke:#000000;stroke-width:0.313254;stroke-linecap:round;stroke-linejoin:round;stroke-opacity:1;paint-order:stroke markers fill"
         d="m 13.610981,27.945072 5.539236,5.447305 c -0.629763,2.430052 -1.678558,4.971162 -5.398941,7.030524 l 0.586008,-2.843466 c 0,0 -2.566841,1.567898 -5.7700591,1.193423 -0.1914389,-3.47368 0.9072804,-4.40121 0.9169326,-5.480351 0.0048,-0.537116 -2.979049,0.997303 -2.979049,0.997303 1.7672505,-3.008012 4.0333755,-5.485785 7.1058725,-6.344738 z"
         sodipodi:nodetypes="cccccscc" />
      <path
         id="rect952-9-1-2"
         style="fill:#f2c94a;fill-opacity:1;stroke:#000000;stroke-width:0.199097;stroke-linecap:round;stroke-linejoin:round;stroke-opacity:1;paint-order:stroke markers fill"
         d="m 14.622333,28.895498 3.520618,3.462188 c -0.216725,0.836271 0.655776,1.883222 -2.160914,4.932803 0.02094,-2.044866 -0.389577,-2.756708 -0.389577,-2.756708 0,0 -2.463711,1.502433 -4.400849,1.273466 0.03905,-1.936183 1.507372,-3.653014 1.507372,-3.653014 l -2.068075,-0.377412 c 1.516503,-2.361357 3.079041,-2.637746 3.991425,-2.881323 z"
         sodipodi:nodetypes="cccccccc" />
    </g>
    <circle
       style="fill:#f2c930;fill-opacity:1;stroke:#ffffff;stroke-width:0.61023;stroke-linecap:round;stroke-linejoin:round;stroke-opacity:1;paint-order:stroke markers fill"
       id="path1008"
       cx="37.488125"
       cy="4.3389025"
       r="3.4346778"
       transform="rotate(11.007459)" />
  </g>
</svg>
