<?xml version="1.0" encoding="UTF-8" standalone="no"?>
<svg
   xmlns:svg="http://www.w3.org/2000/svg"
   xmlns="http://www.w3.org/2000/svg"
   xml:space="preserve"
   style="enable-background:new 0 0 512 512;"
   viewBox="0 0 512 512"
   y="0px"
   x="0px"
   id="Layer_1"
   version="1.1"><defs
   id="defs85" />
<rect
   id="rect2"
   height="376.292"
   width="496.38"
   style="fill:#FFFFFF;"
   y="67.86"
   x="7.811" />
<polyline
   id="polyline4"
   points="183.945,260.003 183.945,147.917 408.116,147.917 408.116,260.003 183.945,260.003 "
   style="fill:#d69e2e;fill-opacity:0.61003923;stroke:none" />
<path
   id="path6"
   d="M448.305,285.218c-7.598,1.433-13.541,7.376-14.974,14.974l-1.778,9.422  c-3.247,5.411-11.09,5.411-14.337,0l-39.663-66.105c-2.42-4.035-1.785-9.199,1.542-12.526l0,0c3.327-3.327,8.492-3.963,12.526-1.542  l66.105,39.663c5.411,3.247,5.411,11.09,0,14.337L448.305,285.218z"
   style="fill:#d69e2e;fill-opacity:0.49971992" />
<rect
   id="rect8"
   height="376.292"
   width="80.061"
   style="fill:#d69e2e;fill-opacity:0.30126333"
   y="67.86"
   x="7.811" />
<rect
   id="rect10"
   height="256.193"
   width="96.072"
   style="fill:#d69e2e;fill-opacity:0.37598151"
   y="147.915"
   x="47.841" />
<rect
   id="rect12"
   height="40.031"
   width="496.38"
   style="fill:#d69e2e;fill-opacity:0.61843425"
   y="67.86"
   x="7.811" />
<circle
   id="circle14"
   r="48.031"
   cy="227.981"
   cx="95.875"
   style="fill:#feffff;fill-opacity:0.79463124" />
<rect
   id="rect16"
   height="15.622"
   width="15.622"
   style="fill:#d69e2e;fill-opacity:0.75166059;stroke:none"
   y="100.301"
   x="32.092" />
<rect
   id="rect18"
   height="15.622"
   width="16.663"
   style="fill:#d69e2e;fill-opacity:0.75166059;stroke:none"
   y="100.301"
   x="63.334" />
<rect
   id="rect20"
   height="15.622"
   width="16.663"
   style="fill:#d69e2e;fill-opacity:0.50641954;stroke:none"
   y="100.301"
   x="95.614" />
<path
   style="fill:#d69e2e;fill-opacity:0.71678078;stroke:#000000;stroke-opacity:1;stroke-width:0;stroke-miterlimit:4;stroke-dasharray:none"
   id="path22"
   d="M0,60.046v391.908h512V60.046H0z M15.622,436.332V75.668h480.757v24.638H127.903v15.622h368.476v320.406H15.622V436.332z" />
<polygon
   transform="matrix(1.0348393,0,0,1.0696876,-14.490608,-18.663307)"
   style="stroke:#000000;stroke-width:0;stroke-miterlimit:4;stroke-dasharray:none;stroke-opacity:0.34912509;fill:#d69e2e;fill-opacity:0.23196831"
   id="polygon24"
   points="176.134,140.106 415.927,140.106 415.927,219.972 400.305,219.972 400.305,155.728 191.755,155.728 191.755,252.192 368.085,252.192 368.085,267.814 176.134,267.814 " />
<rect
   id="rect26"
   height="15.622"
   width="184.334"
   style="fill:#d69e2e;fill-opacity:1"
   y="291.925"
   x="175.805" />
<rect
   style="fill:#d69e2e;fill-opacity:0.50366956"
   id="rect28"
   height="15.622"
   width="23.953"
   y="324.209"
   x="175.805" />
<rect
   style="fill:#d69e2e;fill-opacity:1"
   id="rect30"
   height="15.622"
   width="80.191"
   y="348.162"
   x="175.805" />
<rect
   id="rect32"
   height="15.622"
   width="40.616"
   style="fill:#d69e2e;fill-opacity:0.7162689"
   y="348.162"
   x="271.617" />
<rect
   style="fill:#d69e2e;fill-opacity:0.27964386"
   id="rect34"
   height="15.622"
   width="80.191"
   y="348.162"
   x="327.854" />
<rect
   id="rect36"
   height="15.622"
   width="119.765"
   style="fill:#d69e2e;fill-opacity:0.33061475"
   y="372.115"
   x="175.805" />
<rect
   style="fill:#d69e2e;fill-opacity:1"
   id="rect38"
   height="15.622"
   width="176.003"
   y="396.068"
   x="175.805" />
<path
   style="fill:#d69e2e;fill-opacity:0.69669801;stroke:none"
   id="path40"
   d="M40.031,140.106v271.817h111.695V140.106H40.031z M136.104,396.303H55.652V266.659  c10.168,10.57,24.437,17.167,40.226,17.167s30.058-6.596,40.225-17.167V396.303z M55.652,227.979  c0-22.181,18.045-40.225,40.226-40.225c22.181,0,40.225,18.045,40.225,40.225s-18.045,40.225-40.225,40.225  C73.697,268.204,55.652,250.159,55.652,227.979z M95.878,172.132c-15.789,0-30.059,6.597-40.226,17.167v-33.57h80.452v33.57  C125.937,178.728,111.668,172.132,95.878,172.132z" />
<path
   style="stroke:none;fill:#d69e2e;fill-opacity:0.19952238"
   id="path42"
   d="M424.385,321.483c-5.733,0-10.916-2.935-13.866-7.85l-39.664-66.105c-4.272-7.121-3.154-16.195,2.716-22.067  c5.875-5.874,14.948-6.989,22.069-2.717l66.104,39.663c4.917,2.949,7.851,8.134,7.851,13.867c0,5.732-2.935,10.916-7.85,13.867  l-1.198,0.719l-10.796,2.037c-4.47,0.844-7.902,4.276-8.746,8.746l-2.037,10.794l-0.719,1.198  C435.301,318.548,430.117,321.483,424.385,321.483z M386.346,235.788c-0.632,0-1.256,0.245-1.728,0.717  c-0.794,0.794-0.945,2.021-0.367,2.985l39.663,66.104c0.055,0.092,0.144,0.241,0.399,0.263l1.342-7.115  c2.044-10.835,10.365-19.157,21.202-21.201l7.114-1.342c-0.023-0.256-0.172-0.345-0.265-0.4l-66.104-39.663  C387.212,235.904,386.778,235.788,386.346,235.788z" />
<g
   id="g48">
	<rect
   id="rect44"
   height="15.622"
   width="47.906"
   style="fill:#FFFFFF;"
   y="363.784"
   x="71.665" />
	<rect
   id="rect46"
   height="15.622"
   width="47.906"
   style="fill:#FFFFFF;"
   y="300.256"
   x="71.665" />
</g>
<rect
   id="rect50"
   height="15.622"
   width="47.906"
   style="fill:#d69e2e;fill-opacity:0.69189572"
   y="332.541"
   x="71.665" />
<g
   id="g52">
</g>
<g
   id="g54">
</g>
<g
   id="g56">
</g>
<g
   id="g58">
</g>
<g
   id="g60">
</g>
<g
   id="g62">
</g>
<g
   id="g64">
</g>
<g
   id="g66">
</g>
<g
   id="g68">
</g>
<g
   id="g70">
</g>
<g
   id="g72">
</g>
<g
   id="g74">
</g>
<g
   id="g76">
</g>
<g
   id="g78">
</g>
<g
   id="g80">
</g>
</svg>
